<svg width="240" height="11" viewBox="0 0 240 11" fill="none" xmlns="http://www.w3.org/2000/svg">
<path d="M11.6467 11H9.92672V6.32H1.78672V11H0.0667188V0.679999H1.78672V4.9H9.92672V0.679999H11.6467V11ZM29.9403 8.56C29.9403 9.50667 29.7736 10.1533 29.4403 10.5C29.107 10.8333 28.4736 11 27.5403 11H21.4203C20.487 11 19.847 10.8333 19.5003 10.5C19.167 10.1533 19.0003 9.50667 19.0003 8.56V0.679999H20.7203V9.56H28.2403V0.679999H29.9403V8.56ZM50.0084 11H48.4284V4.04C48.4284 4.04 48.4551 3.53333 48.5084 2.52C48.2818 3 48.0751 3.37333 47.8884 3.64L43.9484 9.38H43.5084L39.4084 3.8C39.0884 3.36 38.8551 2.93333 38.7084 2.52C38.7618 2.92 38.7884 3.34667 38.7884 3.8V11H37.3284V0.679999H38.7284L43.7484 7.4L48.4284 0.679999H50.0084V11ZM68.5948 11H66.6948L65.3748 8.46H58.3948L57.0748 11H55.3748L61.0148 0.679999H62.8548L68.5948 11ZM64.6748 7.14L61.8948 1.86L59.1148 7.14H64.6748ZM85.3261 11H84.3661L76.4261 3.82C76.1728 3.59333 75.8261 3.20667 75.3861 2.66C75.4661 3.27333 75.5061 3.98 75.5061 4.78V11H73.9261V0.679999H75.0061L82.7261 7.58C83.0994 7.91333 83.4928 8.34667 83.9061 8.88C83.7994 8.24 83.7461 7.47333 83.7461 6.58V0.679999H85.3261V11ZM112.664 4.98C112.664 5.7 112.484 6.21333 112.124 6.52C111.778 6.82667 111.231 6.98 110.484 6.98H103.884V11H102.164V0.679999H110.484C111.231 0.679999 111.778 0.833333 112.124 1.14C112.484 1.44667 112.664 1.96 112.664 2.68V4.98ZM110.924 4.54V3.1C110.924 2.68667 110.838 2.40667 110.664 2.26C110.504 2.1 110.218 2.02 109.804 2.02H103.884V5.62H109.804C110.218 5.62 110.504 5.54667 110.664 5.4C110.838 5.24 110.924 4.95333 110.924 4.54ZM130.711 8.56C130.711 9.50667 130.544 10.1533 130.211 10.5C129.878 10.8333 129.244 11 128.311 11H121.171C120.238 11 119.598 10.8333 119.251 10.5C118.918 10.1533 118.751 9.50667 118.751 8.56V3.12C118.751 2.17333 118.918 1.53333 119.251 1.2C119.598 0.853333 120.238 0.679999 121.171 0.679999H128.311C129.244 0.679999 129.878 0.853333 130.211 1.2C130.544 1.53333 130.711 2.17333 130.711 3.12V8.56ZM129.011 9.56V2.08H120.471V9.56H129.011ZM151.842 0.679999L148.102 11H146.822L143.962 3.2L141.002 11H139.642L135.902 0.679999H137.642L140.442 8.88L143.482 0.679999H144.542L147.482 8.88L150.302 0.679999H151.842ZM167.188 11H157.168V0.679999H167.108V2.06H158.888V4.94H163.908V6.3H158.888V9.58H167.188V11ZM184.809 11H182.249L178.049 6.98H175.009V11H173.289V0.679999H181.609C182.356 0.679999 182.903 0.833333 183.249 1.14C183.609 1.44667 183.789 1.96 183.789 2.68V4.98C183.789 6.00667 183.389 6.63333 182.589 6.86C182.336 6.94 181.503 6.98 180.089 6.98L184.809 11ZM182.049 4.58V3.08C182.049 2.68 181.963 2.40667 181.789 2.26C181.629 2.1 181.343 2.02 180.929 2.02H175.009V5.64H180.929C181.343 5.64 181.629 5.56667 181.789 5.42C181.963 5.27333 182.049 4.99333 182.049 4.58ZM192.684 4.2C192.684 4.42667 192.65 4.57333 192.584 4.64C192.53 4.69333 192.39 4.72 192.164 4.72H190.884C190.617 4.72 190.484 4.54667 190.484 4.2V3.06C190.484 2.83333 190.51 2.68667 190.564 2.62C190.63 2.55333 190.777 2.52 191.004 2.52H192.164C192.39 2.52 192.53 2.55333 192.584 2.62C192.65 2.68667 192.684 2.83333 192.684 3.06V4.2ZM192.684 10.48C192.684 10.7067 192.65 10.8533 192.584 10.92C192.53 10.9733 192.39 11 192.164 11H190.884C190.617 11 190.484 10.8267 190.484 10.48V9.34C190.484 9.11333 190.51 8.96667 190.564 8.9C190.63 8.83333 190.777 8.8 191.004 8.8H192.164C192.39 8.8 192.53 8.83333 192.584 8.9C192.65 8.96667 192.684 9.11333 192.684 9.34V10.48Z" fill="white"/>
<path d="M221.305 8.56C221.305 9.50667 221.138 10.1533 220.805 10.5C220.471 10.8333 219.838 11 218.905 11H211.765C210.831 11 210.191 10.8333 209.845 10.5C209.511 10.1533 209.345 9.50667 209.345 8.56V3.12C209.345 2.17333 209.511 1.53333 209.845 1.2C210.191 0.853333 210.831 0.679999 211.765 0.679999H218.905C219.838 0.679999 220.471 0.853333 220.805 1.2C221.138 1.53333 221.305 2.17333 221.305 3.12V8.56ZM219.605 9.56V2.08H211.065V9.56H219.605ZM239.935 11H238.975L231.035 3.82C230.782 3.59333 230.435 3.20667 229.995 2.66C230.075 3.27333 230.115 3.98 230.115 4.78V11H228.535V0.679999H229.615L237.335 7.58C237.709 7.91333 238.102 8.34667 238.515 8.88C238.409 8.24 238.355 7.47333 238.355 6.58V0.679999H239.935V11Z" fill="#0DC523"/>
</svg>
