<svg width="20" height="20" viewBox="0 0 20 20" fill="none" xmlns="http://www.w3.org/2000/svg">
<path d="M14.3672 10.469C14.3883 12.739 16.3586 13.4944 16.3804 13.504C16.3638 13.5573 16.0656 14.5805 15.3424 15.6374C14.7172 16.5512 14.0683 17.4616 13.0462 17.4805C12.0418 17.499 11.7188 16.8849 10.5705 16.8849C9.42259 16.8849 9.06377 17.4616 8.11302 17.499C7.12637 17.5364 6.37503 16.5109 5.74466 15.6005C4.45654 13.7382 3.47214 10.3381 4.79394 8.04296C5.45057 6.90319 6.62404 6.18144 7.89772 6.16293C8.86658 6.14445 9.78104 6.81475 10.3733 6.81475C10.9653 6.81475 12.0765 6.00866 13.2448 6.12704C13.7339 6.1474 15.1068 6.3246 15.9883 7.61495C15.9172 7.65898 14.3502 8.57124 14.3672 10.469ZM12.4796 4.89498C13.0034 4.26092 13.356 3.37825 13.2598 2.5C12.5048 2.53035 11.5918 3.00314 11.0502 3.63685C10.5648 4.19803 10.1398 5.09623 10.2545 5.9571C11.096 6.02221 11.9558 5.52944 12.4796 4.89498Z" fill="#929394"/>
</svg>
