<svg width="300" height="207" viewBox="0 0 300 207" fill="none" xmlns="http://www.w3.org/2000/svg">
<path d="M138.329 126.828C138.331 140.714 134.152 154.279 126.335 165.757C118.518 177.234 107.426 186.091 94.503 191.174C93.4893 191.581 92.457 191.959 91.42 192.309C90.2615 192.706 89.0906 193.071 87.9072 193.402C87.0851 193.631 86.2551 193.846 85.4174 194.047C72.8069 197.069 59.6028 196.506 47.2953 192.421C46.3284 192.099 45.3707 191.753 44.4225 191.394C43.1472 190.903 41.886 190.375 40.6481 189.81C40.5547 189.773 40.4659 189.731 40.3772 189.689C39.8914 189.464 39.4196 189.24 38.9384 189.002H38.9338C38.2751 188.684 37.6227 188.354 36.9765 188.012C35.4911 187.227 34.0383 186.391 32.6183 185.503C31.8802 185.045 31.153 184.571 30.4368 184.079C19.1634 176.467 10.387 165.698 5.20705 153.121C0.0271336 140.544 -1.32587 126.717 1.31757 113.374C3.96101 100.032 10.4833 87.7655 20.0673 78.1131C29.6513 68.4608 41.8707 61.8514 55.1944 59.1132C56.4136 58.8609 57.6453 58.6429 58.8894 58.4592C59.6695 58.3378 60.4589 58.235 61.2484 58.1462C61.8136 58.0808 62.3788 58.0201 62.9534 57.9734H62.9581C64.4949 57.8332 66.0458 57.746 67.6106 57.7118C67.8255 57.7071 68.0404 57.7025 68.2599 57.6978C68.3814 57.6978 68.5028 57.6931 68.6243 57.6978H68.629C68.8158 57.6931 69.0026 57.6931 69.1942 57.6931C69.9789 57.6931 70.7637 57.7071 71.5438 57.7351C73.2628 57.7912 74.9632 57.9095 76.6448 58.0902C77.6164 58.1929 78.5741 58.3191 79.5317 58.4592C79.6391 58.4779 79.7512 58.4919 79.8587 58.5106C80.1763 58.562 80.4986 58.6133 80.8163 58.6694C81.4889 58.7768 82.1569 58.903 82.8249 59.0384C83.4508 59.1646 84.0721 59.2953 84.6934 59.4355C86.9896 59.9593 89.2567 60.6033 91.4854 61.3647C106.59 66.5286 119.45 76.7468 127.893 90.2938C128.131 90.6722 128.365 91.0552 128.594 91.4429C128.771 91.7325 128.94 92.0222 129.108 92.3164C129.168 92.4145 129.224 92.5126 129.276 92.6107C129.313 92.6668 129.341 92.7228 129.374 92.7789C129.682 93.3161 129.981 93.8626 130.271 94.4092C135.578 104.39 138.346 115.524 138.329 126.828Z" fill="#212121"/>
<path d="M128.354 111.816C127.599 112.801 126.638 113.608 125.537 114.182C124.436 114.755 123.223 115.08 121.984 115.133C120.744 115.187 119.507 114.969 118.361 114.493C117.215 114.017 116.187 113.296 115.35 112.38L97.1102 118.98L90.3955 108.874L116.285 99.9146C117.917 98.6102 119.971 97.9497 122.057 98.0584C124.144 98.1671 126.118 99.0374 127.605 100.504C129.093 101.971 129.991 103.933 130.129 106.018C130.267 108.102 129.635 110.165 128.354 111.816Z" fill="#9F616A"/>
<path d="M71.3589 112.757L108.936 100.336L115.269 114.158L80.2343 124.902L71.3589 112.757Z" fill="#5C80FF"/>
<path d="M85.4175 194.047C72.807 197.069 59.6029 196.506 47.2954 192.421L48.1362 184.471L48.9163 177.044L60.6178 158.952L64.3688 153.155L79.826 158.774L81.4002 168.701L83.9087 184.532L85.4175 194.047Z" fill="#2F2E41"/>
<path d="M94.5028 191.174C93.4892 191.58 92.4568 191.959 91.4198 192.309C90.2613 192.706 89.0904 193.07 87.907 193.402C87.0849 193.631 86.255 193.846 85.4172 194.047C72.8067 197.069 59.6026 196.506 47.2951 192.421C46.3282 192.099 45.3706 191.753 44.4223 191.393C44.5517 194.16 44.4674 196.932 44.1701 199.685C42.8207 196.458 41.645 193.162 40.6479 189.81C40.5779 189.586 40.5125 189.362 40.4471 189.137C40.1201 188.007 39.8305 186.928 39.5689 185.914C39.2699 184.742 39.013 183.653 38.7981 182.658C37.9433 178.753 37.6724 176.338 37.6724 176.338L46.8047 157.373L48.6311 157.583L49.3879 157.667L53.9657 158.19L60.6176 158.952L71.3941 160.18L81.4 168.701L90.3641 176.338C90.3641 176.338 91.1115 178.879 92.284 183.088C92.9193 185.349 93.6713 188.091 94.5028 191.174Z" fill="black"/>
<path d="M65.5507 65.018C74.4746 65.018 81.7089 57.7837 81.7089 48.8598C81.7089 39.9359 74.4746 32.7017 65.5507 32.7017C56.6268 32.7017 49.3926 39.9359 49.3926 48.8598C49.3926 57.7837 56.6268 65.018 65.5507 65.018Z" fill="#9F616A"/>
<path d="M76.7986 82.8988C76.7986 82.8988 72.9151 70.8948 63.7822 70.8948C61.499 70.8948 57.8144 71.084 54.819 73.0386C42.7599 80.9078 35.4237 94.2837 34.8616 108.672L32.0537 180.554C32.0537 180.554 47.5093 186.174 53.1296 184.067C58.7498 181.959 64.37 167.909 64.37 167.909C64.37 167.909 62.965 186.877 68.5852 186.174C74.2054 185.472 95.2813 184.067 95.9838 181.257C96.6863 178.446 85.2289 118.025 85.2289 118.025L76.7986 82.8988Z" fill="#5C80FF"/>
<path d="M57.6958 53.5971C59.1453 53.5106 60.5607 54.0005 62.0002 54.1916C67.1504 54.8753 72.5081 51.1381 73.6453 46.0688C73.7364 45.3937 73.9376 44.7381 74.2409 44.1281C75.0335 42.834 76.8387 42.5873 78.3268 42.8849C79.8149 43.1825 81.2255 43.8789 82.7409 43.9584C85.0809 44.0812 87.3273 42.6407 88.5744 40.6569C89.8214 38.6732 90.1745 36.2322 90.0061 33.8951L88.8844 35.0724C88.4286 34.1081 88.2526 33.0352 88.3765 31.9758C87.782 31.8175 87.1569 31.8144 86.5609 31.9669C85.965 32.1194 85.4182 32.4224 84.9728 32.8467C83.9837 32.952 84.7302 31.0121 83.9954 30.3417C83.638 30.1221 83.212 30.0424 82.7994 30.1179C80.6952 30.1382 78.993 28.5288 77.3348 27.2331C74.4618 24.9933 71.1021 23.4608 67.5273 22.7595C65.1512 22.2961 62.6245 22.2216 60.3711 23.1064C58.5205 23.833 56.9716 25.1565 55.5385 26.5345C52.0106 29.9268 48.8866 33.9126 47.4189 38.5816C46.2257 42.4059 46.192 46.498 47.3218 50.3415C47.9132 52.3375 49.6955 59.1733 52.3047 59.3325C55.5833 59.5326 53.6149 53.8406 57.6958 53.5971Z" fill="#212121"/>
<path opacity="0.1" d="M64.5183 104.173L47.9723 128.44L42.6807 184.808L64.5183 104.173Z" fill="black"/>
<path d="M134.644 89.3386C135.04 88.7836 135.192 88.2134 134.984 88.0649C134.776 87.9164 134.286 88.2459 133.89 88.8009C133.494 89.3558 133.342 89.926 133.55 90.0745C133.758 90.223 134.248 89.8935 134.644 89.3386Z" fill="#3F3D56"/>
<path d="M112.579 115.483C112.112 115.15 111.797 114.646 111.703 114.081C111.608 113.516 111.742 112.936 112.075 112.47L130.894 86.0942C131.226 85.6278 131.731 85.3128 132.296 85.2183C132.861 85.1238 133.44 85.2577 133.907 85.5904L112.579 115.483L112.579 115.483Z" fill="#71FA4F"/>
<path d="M113.351 118.119L112.262 117.342C112.075 117.209 111.917 117.04 111.795 116.845C111.673 116.651 111.591 116.434 111.553 116.207C111.516 115.981 111.523 115.749 111.574 115.526C111.626 115.302 111.721 115.091 111.855 114.904L133.281 84.8727C133.509 84.554 133.853 84.3387 134.239 84.2741C134.626 84.2096 135.022 84.301 135.34 84.5284L136.651 85.4633L113.351 118.119H113.351Z" fill="#2F2E41"/>
<path d="M132.634 87.9047L131.2 89.9143L131.703 90.2728L133.137 88.2632L132.634 87.9047Z" fill="#D0CDE1"/>
<path d="M130.663 90.6679L129.229 92.6775L129.731 93.036L131.165 91.0264L130.663 90.6679Z" fill="#D0CDE1"/>
<path d="M46.4368 203.195C47.1617 202.188 47.657 201.034 47.8877 199.815C48.1184 198.595 48.079 197.34 47.7722 196.138C47.4654 194.935 46.8986 193.815 46.1119 192.855C45.3252 191.895 44.3377 191.12 43.2188 190.583L44.2668 171.214L32.6516 167.706L31.5557 195.08C30.7786 197.019 30.7399 199.177 31.4469 201.143C32.1539 203.109 33.5575 204.747 35.3918 205.747C37.2261 206.748 39.3636 207.04 41.3992 206.57C43.4349 206.099 45.2273 204.899 46.4368 203.195H46.4368Z" fill="#9F616A"/>
<path d="M46.3747 187.263H29.571L24.9473 135.503L24.9631 135.456L40.6909 89.2657C41.2446 87.6393 42.131 86.146 43.2936 84.881C44.4562 83.6159 45.8694 82.6069 47.4434 81.918C49.0174 81.2292 50.7175 80.8756 52.4356 80.8799C54.1537 80.8842 55.8521 81.2462 57.4226 81.943C58.9931 82.6397 60.4013 83.6558 61.5575 84.9266C62.7138 86.1974 63.5927 87.6951 64.1383 89.3243C64.684 90.9534 64.8844 92.6783 64.7268 94.3892C64.5692 96.1001 64.057 97.7594 63.2229 99.2614L44.7165 132.589L46.3747 187.263Z" fill="#5C80FF"/>
<path d="M300 126.822C300.013 140.446 296.003 153.771 288.475 165.126C280.946 176.481 270.233 185.361 257.679 190.652C245.124 195.944 231.287 197.412 217.902 194.872C204.517 192.332 192.179 185.898 182.436 176.375C172.692 166.852 165.977 154.665 163.131 141.342C160.285 128.018 161.435 114.151 166.438 101.479C171.441 88.8065 180.073 77.8929 191.252 70.106C202.432 62.3192 215.661 58.0058 229.282 57.7064C229.497 57.7018 229.711 57.6971 229.931 57.6924C230.239 57.6877 230.552 57.6877 230.865 57.6877C231.65 57.6877 232.435 57.7018 233.215 57.7298C234.934 57.7858 236.634 57.9042 238.316 58.0848C239.288 58.1876 240.245 58.3137 241.203 58.4538C241.31 58.4725 241.422 58.4865 241.53 58.5052C245.481 59.1144 249.372 60.0694 253.156 61.3593C266.819 66.0188 278.681 74.8358 287.081 86.575C295.482 98.3141 299.999 112.387 300 126.822Z" fill="#212121"/>
<path d="M177.966 130.554C178.102 130.338 177.746 129.867 177.17 129.503C176.594 129.138 176.017 129.017 175.88 129.233C175.743 129.449 176.099 129.92 176.675 130.285C177.251 130.65 177.829 130.77 177.966 130.554Z" fill="#3F3D56"/>
<path d="M175.945 126.535C176.097 126.296 176.294 126.088 176.526 125.925C176.758 125.761 177.02 125.645 177.297 125.583C177.573 125.521 177.86 125.514 178.139 125.563C178.419 125.611 178.686 125.714 178.925 125.866L206.3 143.201C206.539 143.352 206.747 143.55 206.91 143.782C207.073 144.014 207.189 144.275 207.252 144.552C207.314 144.829 207.321 145.115 207.272 145.395C207.224 145.674 207.121 145.941 206.969 146.181L175.945 126.535V126.535Z" fill="#71FA4F"/>
<path d="M173.355 127.452L174.216 126.092C174.426 125.761 174.758 125.527 175.14 125.442C175.522 125.356 175.922 125.425 176.253 125.635L207.421 145.372C207.615 145.495 207.783 145.654 207.915 145.842C208.047 146.03 208.141 146.242 208.191 146.466C208.242 146.69 208.247 146.921 208.208 147.148C208.169 147.374 208.085 147.59 207.963 147.784L207.247 148.914L173.355 127.452H173.355Z" fill="#2F2E41"/>
<path d="M177.996 128.199L177.666 128.721L179.751 130.041L180.082 129.52L177.996 128.199Z" fill="#D0CDE1"/>
<path d="M180.864 130.015L180.533 130.537L182.619 131.857L182.949 131.336L180.864 130.015Z" fill="#D0CDE1"/>
<path d="M231.05 64.8046C241.796 64.8046 250.507 56.0936 250.507 45.348C250.507 34.6024 241.796 25.8914 231.05 25.8914C220.305 25.8914 211.594 34.6024 211.594 45.348C211.594 56.0936 220.305 64.8046 231.05 64.8046Z" fill="#FFB8B8"/>
<path d="M249.579 193.397C233.794 197.805 216.958 196.49 202.049 189.683L203.544 149.744L203.656 146.638L203.698 145.629L203.749 144.143L203.787 143.195C203.787 143.195 203.847 143.19 203.964 143.186C204.282 143.162 205.015 143.111 206.066 143.05C207.285 142.98 208.925 142.891 210.835 142.812C211.289 142.793 211.756 142.775 212.237 142.751C222.299 142.378 238.013 142.298 240.092 145.33L240.353 147.114L240.774 149.996L241.633 155.887C241.633 155.887 251.405 175.319 249.579 193.397Z" fill="black"/>
<path d="M254.518 92.6648L250.686 128.063L243.387 144.208L240.682 150.194L201.532 149.72L205.565 122.433C199.871 107.722 213.396 101.79 213.396 101.79L227.425 73.0455C227.425 73.0455 231.162 71.177 240.92 70.7067C249.991 70.2695 242.84 71.6441 242.84 71.6441C254.704 70.4577 254.518 92.6648 254.518 92.6648Z" fill="#00DFFF"/>
<path opacity="0.2" d="M242.745 129.932L235.446 146.076C233.102 141.691 231.318 136.725 231.318 133.792C231.318 125.725 239.385 129.996 239.385 129.996C239.385 129.996 232.86 94.286 232.86 83.6085C232.86 76.5163 238.773 107.991 242.745 129.932Z" fill="black"/>
<path d="M253.474 33.4942C252.208 30.4053 250.25 27.6483 247.751 25.4354C248.776 25.0917 249.632 24.3708 250.144 23.419C250.893 21.9366 250.496 20.0776 249.478 18.7508C248.55 17.6299 247.35 16.766 245.992 16.2421C246.987 16.6945 248.075 16.9038 249.166 16.8528C250.49 16.7151 251.813 15.6766 251.734 14.388C251.659 13.1604 250.452 12.3304 249.368 11.6897C248.665 11.2742 247.962 10.8586 247.259 10.4431C247.467 10.0394 247.651 9.62308 247.808 9.19664C248.415 7.64636 248.561 5.95388 248.229 4.32249C247.897 2.6911 247.102 1.19017 245.938 0C248.24 2.34387 247.652 5.97133 245.377 8.91509C245.304 9.00995 245.225 9.10246 245.149 9.19609C244.698 8.92969 244.248 8.66329 243.797 8.3969C242.673 7.73247 241.504 7.05251 240.199 6.89582C238.893 6.73913 237.406 7.25597 236.873 8.42068C236.302 9.66738 236.951 11.2584 236.207 12.4159C235.557 13.4288 234.136 13.6444 232.905 13.5965C231.674 13.5485 230.365 13.3541 229.27 13.8985C227.748 14.6555 227.248 16.7025 227.925 18.2291C228.226 18.8793 228.675 19.4502 229.236 19.8963C225.977 20.3513 222.767 21.3189 219.613 22.3031C215.894 23.4635 212.106 24.6962 208.998 27.0451C205.889 29.394 203.535 33.1019 203.831 36.9867C204.127 40.8714 207.986 46.9898 211.832 46.3687L212.418 44.5356C214.744 43.43 217.357 43.0781 219.892 43.5289C222.428 43.9797 224.759 45.2108 226.562 47.0503C226.606 44.6044 230.329 43.7919 232.184 45.3865C234.039 46.9811 234.397 49.6771 234.541 52.1192C234.684 54.5611 234.821 57.2201 236.429 59.063C237.973 60.8317 240.603 61.3802 242.891 60.8532C245.179 60.3263 247.157 58.8749 248.795 57.1933C254.739 51.0925 256.653 41.3964 253.474 33.4942Z" fill="#212121"/>
<path d="M191.416 147.383C192.423 148.107 193.577 148.603 194.796 148.833C196.016 149.064 197.271 149.025 198.473 148.718C199.676 148.411 200.796 147.844 201.756 147.058C202.716 146.271 203.491 145.283 204.028 144.165L257.03 145.213L260.538 133.597L199.531 132.502C197.592 131.724 195.434 131.686 193.468 132.393C191.502 133.1 189.864 134.503 188.864 136.338C187.863 138.172 187.571 140.309 188.041 142.345C188.512 144.381 189.712 146.173 191.416 147.383V147.383Z" fill="#FFB8B8"/>
<path d="M242.944 69.7278C242.944 69.7278 230.606 70.6769 230.606 81.3544C230.606 92.0318 241.758 129.996 241.758 129.996C241.758 129.996 233.69 125.725 233.69 133.792C233.69 141.86 247.215 165.35 248.639 149.69C248.639 149.69 269.044 159.656 267.858 140.911C266.672 122.166 253.859 82.5407 253.859 82.5407C253.859 82.5407 252.435 69.016 242.944 69.7278Z" fill="#00DFFF"/>
</svg>
