<svg width="24" height="24" viewBox="0 0 24 24" fill="none" xmlns="http://www.w3.org/2000/svg">
<path d="M8.90767 6.2638C9.10308 6.45921 9.18124 6.6937 9.18124 6.92819C9.18124 7.16268 9.10308 7.39717 8.90767 7.59257L5.19492 11.3053H21.062C21.5701 11.3053 22 11.7352 22 12.2433C22 12.7513 21.5701 13.1812 21.062 13.1812H5.19492L8.90767 16.894C9.2594 17.2457 9.2594 17.871 8.90767 18.2228C8.55594 18.5745 7.93063 18.5745 7.5789 18.2228L2.2638 12.9077C1.91207 12.5559 1.91207 11.9306 2.2638 11.5789L7.5789 6.2638C7.93063 5.91207 8.55594 5.91207 8.90767 6.2638Z" fill="white"/>
</svg>
