<svg width="40" height="40" viewBox="0 0 40 40" fill="none" xmlns="http://www.w3.org/2000/svg">
<path d="M15.5556 31.111V27.9629H22.963V31.111H15.5556Z" fill="#0DC523"/>
<path d="M19.8738 17.1643H22.2779C22.6633 17.1643 22.9029 17.6223 22.7092 17.9846L19.0425 24.9117C18.9509 25.0849 18.7842 25.1851 18.6092 25.1851C18.2905 25.1851 18.0488 24.8593 18.1238 24.5129L19.0842 20.081H16.6113C16.3092 20.081 16.0759 19.7893 16.1155 19.4612L16.7821 13.9924C16.8155 13.7213 17.028 13.5185 17.278 13.5185H20.2779C20.605 13.5185 20.8446 13.8603 20.7613 14.2066L19.8738 17.1643Z" fill="#0DC523"/>
<path fill-rule="evenodd" clip-rule="evenodd" d="M13.7037 5.1851H15.5556C15.5556 4.14344 16.3657 3.33325 17.4074 3.33325H21.1111C22.1528 3.33325 22.963 4.14344 22.963 5.1851H24.8148C26.8403 5.1851 28.5185 6.86335 28.5185 8.88881V32.9629C28.5185 34.9883 26.8403 36.6666 24.8148 36.6666H13.7037C11.6782 36.6666 10 34.9883 10 32.9629V8.88881C10 6.86335 11.6782 5.1851 13.7037 5.1851ZM24.8148 32.9629V8.88881H13.7037V32.9629H24.8148Z" fill="#0DC523"/>
</svg>
