<svg width="30" height="28" viewBox="0 0 30 28" fill="none" xmlns="http://www.w3.org/2000/svg">
<path d="M17.5 24.0001H0.833333C0.364583 24.0001 0 24.3647 0 24.8334V26.5001C0 26.9688 0.364583 27.3334 0.833333 27.3334H17.5C17.9687 27.3334 18.3333 26.9688 18.3333 26.5001V24.8334C18.3333 24.3647 17.9687 24.0001 17.5 24.0001ZM28.3333 7.33341V4.83341C28.3333 4.36466 27.9687 4.00008 27.5 4.00008C27.0312 4.00008 26.6667 4.36466 26.6667 4.83341V7.33341H25V4.83341C25 4.36466 24.6354 4.00008 24.1667 4.00008C23.6979 4.00008 23.3333 4.36466 23.3333 4.83341V7.33341H22.5C22.0312 7.33341 21.6667 7.698 21.6667 8.16675V9.83341C21.6667 11.7084 22.9167 13.2709 24.5833 13.7917V19.9376C24.5833 20.6667 24.0625 21.3438 23.3854 21.5001C22.4479 21.6042 21.6667 20.9272 21.6667 20.0417V18.5834C21.6667 16.0313 19.6354 14.0001 17.0833 14.0001H16.6667V4.00008C16.6667 2.17716 15.1562 0.666748 13.3333 0.666748H5C3.17708 0.666748 1.66667 2.17716 1.66667 4.00008V22.3334H16.6667V16.5001H17.0833C18.2292 16.5001 19.1667 17.4376 19.1667 18.5834V19.8855C19.1667 21.9167 20.6771 23.7917 22.7083 24.0001C25.1042 24.2084 27.0833 22.3334 27.0833 20.0417V13.7917C28.75 13.2709 30 11.7084 30 9.83341V8.16675C30 7.698 29.6354 7.33341 29.1667 7.33341H28.3333ZM13.2292 9.83341L8.64583 17.073C8.54167 17.2292 8.33333 17.3334 8.125 17.3334C7.70833 17.3334 7.39583 17.0209 7.5 16.6563L8.69792 12.3334H5.625C5.26042 12.3334 4.94792 12.0209 5 11.7084L5.83333 6.1355C5.88542 5.87508 6.14583 5.66675 6.45833 5.66675H10C10.4167 5.66675 10.7292 5.97925 10.625 6.34383L10 9.00008H12.7083C13.1771 9.00008 13.4896 9.46883 13.2292 9.83341Z" fill="#00DFFF"/>
</svg>
