<svg width="40" height="40" viewBox="0 0 40 40" fill="none" xmlns="http://www.w3.org/2000/svg">
<path fill-rule="evenodd" clip-rule="evenodd" d="M31.6345 10.5329C33.4585 9.39036 34.0111 6.98631 32.8692 5.16312C31.7276 3.33838 29.3234 2.78577 27.4996 3.9276C25.6764 5.06942 25.1238 7.47261 26.2649 9.2958C27.4065 11.1206 29.8106 11.674 31.6345 10.5329ZM18.7731 18.7693L22.8935 21.1626C24.2084 21.9263 24.4553 23.7228 23.4026 24.8121L15.9405 32.5506C15.4817 33.0279 14.8689 33.2671 14.2552 33.2671C13.6699 33.2671 13.0845 33.0491 12.6302 32.611C11.6989 31.7139 11.6721 30.2313 12.57 29.3007L17.7004 23.979C17.7004 23.979 11.3657 20.0863 10.7142 19.3111C9.04649 17.3273 10.0427 14.6305 12.0854 13.3515L20.4026 8.14415C21.9742 7.16013 24.0443 7.63957 25.0261 9.20749L25.786 10.4224C26.3672 11.351 26.2874 11.8561 26.0542 13.3326L26.0255 13.5148L25.773 16.0482L31.0819 16.9302C32.1452 17.1061 32.8638 18.1108 32.687 19.1741C32.5286 20.1291 31.7016 20.8059 30.7648 20.8059C30.5018 20.8059 23.2906 19.5803 23.2685 19.5757C22.3441 19.3884 21.6099 18.4767 21.7091 17.4804L21.7669 16.895C20.8564 17.465 20.5643 17.6479 20.2778 17.8273C19.9861 18.01 19.7001 18.1891 18.7731 18.7693ZM7.78138 34.3251C9.02597 34.3251 10.1602 33.8884 11.0779 33.1827C11.2158 33.3761 11.369 33.5636 11.5467 33.7353C11.9772 34.1499 12.4811 34.4327 13.0123 34.611C11.6282 35.8762 9.80361 36.6666 7.78138 36.6666C3.48317 36.6666 0 33.1827 0 28.8852C0 24.5872 3.48317 21.1032 7.78138 21.1032C10.6731 21.1032 13.167 22.6993 14.5085 25.0408L12.805 26.8075C11.9864 24.8365 10.045 23.4446 7.78138 23.4446C4.7821 23.4446 2.34151 25.8853 2.34151 28.8852C2.34151 31.8845 4.7821 34.3251 7.78138 34.3251ZM23.2159 28.8852C23.2159 24.6863 26.6543 21.1032 30.9972 21.1032C35.2945 21.1032 38.7787 24.5872 38.7787 28.8852C38.7787 33.1827 35.2945 36.6666 30.9972 36.6666C26.6992 36.6666 23.2159 33.1827 23.2159 28.8852ZM25.5574 28.8852C25.5574 31.8845 27.998 34.3251 30.9972 34.3251C33.9966 34.3251 36.4373 31.8845 36.4372 28.8852C36.4372 25.8853 33.9966 23.4446 30.9972 23.4446C27.998 23.4446 25.5574 25.8853 25.5574 28.8852Z" fill="#00DFFF"/>
</svg>
