<svg width="20" height="20" viewBox="0 0 20 20" fill="none" xmlns="http://www.w3.org/2000/svg">
<path d="M10 2.5C5.84375 2.5 2.5 5.84375 2.5 10C2.5 14.1562 5.84375 17.5 10 17.5C14.1562 17.5 17.5 14.1562 17.5 10C17.5 5.84375 14.1562 2.5 10 2.5ZM13.625 8.625L9.625 12.625C9.4375 12.7812 9.21875 12.875 9 12.875C8.78125 12.875 8.5625 12.7812 8.375 12.625L6.375 10.625C6.03125 10.2812 6.03125 9.71875 6.375 9.375C6.71875 9.03125 7.28125 9.03125 7.625 9.375L9 10.75L12.375 7.375C12.7188 7.03125 13.2812 7.03125 13.625 7.375C13.9688 7.71875 13.9688 8.28125 13.625 8.625Z" fill="#0DC523"/>
</svg>
