<svg width="48" height="48" viewBox="0 0 48 48" fill="none" xmlns="http://www.w3.org/2000/svg">
<path d="M38.625 12.5H32.4375L31.5938 10.1797C31.1016 8.84375 29.8359 8 28.4297 8H19.5703C18.1641 8 16.8984 8.84375 16.4062 10.1797L15.5625 12.5H9.375C7.54688 12.5 6 14.0469 6 15.875V36.125C6 37.9531 7.54688 39.5 9.375 39.5H38.625C40.4531 39.5 42 37.9531 42 36.125V15.875C42 14.0469 40.4531 12.5 38.625 12.5ZM24 32.75C20.2734 32.75 17.25 29.7266 17.25 26C17.25 22.2734 20.2734 19.25 24 19.25C27.7266 19.25 30.75 22.2734 30.75 26C30.75 29.7266 27.7266 32.75 24 32.75Z" fill="white"/>
</svg>
