<svg width="58" height="76" viewBox="0 0 58 76" fill="none" xmlns="http://www.w3.org/2000/svg">
<path d="M32.4741 3.99521C32.4741 0.508882 27.9843 -0.805081 26.0068 2.08505C7.86474 28.6031 33.646 29.7969 33.646 42.6875C33.646 47.9068 29.3818 52.1299 24.1465 52.0611C18.9946 51.9951 14.896 47.7002 14.896 42.5484V30.0225C14.896 26.8438 11.0185 25.3013 8.82714 27.6055C4.90576 31.7247 0.833496 38.7808 0.833496 47.375C0.833496 62.8833 13.4502 75.5 28.9585 75.5C44.4667 75.5 57.0834 62.8833 57.0834 47.375C57.0834 22.4302 32.4741 19.1036 32.4741 3.99521V3.99521Z" fill="white"/>
</svg>
