<svg width="20" height="20" viewBox="0 0 20 20" fill="none" xmlns="http://www.w3.org/2000/svg">
<path fill-rule="evenodd" clip-rule="evenodd" d="M12.9 6.51668C12.3583 6.00831 11.4083 5.39998 10 5.39998C8.01668 5.39998 6.33336 6.70833 5.72497 8.51666L5.72497 8.51666C5.57497 8.98331 5.48334 9.48328 5.48334 9.99997C5.48334 10.5166 5.57497 11.0167 5.7333 11.4833C6.33336 13.2917 8.01668 14.6 10 14.6C11.1166 14.6 11.9667 14.2916 12.6 13.85C13.6 13.15 14.05 12.1083 14.1333 11.4167H10V8.63336H17.0417C17.15 9.10002 17.2 9.55002 17.2 10.1667C17.2 12.45 16.3833 14.375 14.9667 15.6834L14.9667 15.6834C13.7249 16.8333 12.025 17.5 10 17.5C7.06664 17.5 4.5333 15.8166 3.29998 13.3666L3.29998 13.3666C2.79167 12.3499 2.5 11.2083 2.5 9.99997C2.5 8.79164 2.79167 7.64995 3.29998 6.63328L3.3 6.63327C4.53332 4.1833 7.06665 2.5 10 2.5C12.025 2.5 13.7167 3.24167 15.0166 4.45L12.9 6.51668Z" fill="#929394"/>
</svg>
