<svg width="16" height="18" viewBox="0 0 16 18" fill="none" xmlns="http://www.w3.org/2000/svg">
<path d="M14.0625 7.875H13.2188V5.34375C13.2188 2.39766 10.8211 0 7.875 0C4.92891 0 2.53125 2.39766 2.53125 5.34375V7.875H1.6875C0.755859 7.875 0 8.63086 0 9.5625V16.3125C0 17.2441 0.755859 18 1.6875 18H14.0625C14.9941 18 15.75 17.2441 15.75 16.3125V9.5625C15.75 8.63086 14.9941 7.875 14.0625 7.875ZM10.4062 7.875H5.34375V5.34375C5.34375 3.94805 6.4793 2.8125 7.875 2.8125C9.2707 2.8125 10.4062 3.94805 10.4062 5.34375V7.875Z" fill="white"/>
</svg>
