<svg width="24" height="24" viewBox="0 0 24 24" fill="none" xmlns="http://www.w3.org/2000/svg">
<path d="M3.24912 12.4654L9.24942 18.4657C9.78516 19.0015 10.7138 18.6264 10.7138 17.8585V14.4298H15.5712C16.0462 14.4298 16.4283 14.0476 16.4283 13.5726V10.1439C16.4283 9.66885 16.0462 9.28669 15.5712 9.28669H10.7138V5.85795C10.7138 5.09362 9.78873 4.71503 9.24942 5.25077L3.24912 11.2511C2.91696 11.5868 2.91696 12.1297 3.24912 12.4654ZM14.1425 18.2871V16.8585C14.1425 16.6228 14.3354 16.4299 14.5711 16.4299H17.5713C18.2034 16.4299 18.7142 15.9192 18.7142 15.287V8.4295C18.7142 7.79733 18.2034 7.28659 17.5713 7.28659H14.5711C14.3354 7.28659 14.1425 7.09372 14.1425 6.85799V5.42935C14.1425 5.19363 14.3354 5.00076 14.5711 5.00076H17.5713C19.4642 5.00076 21 6.53655 21 8.4295V15.287C21 17.1799 19.4642 18.7157 17.5713 18.7157H14.5711C14.3354 18.7157 14.1425 18.5229 14.1425 18.2871Z" fill="#EC4025"/>
</svg>
