<svg width="20" height="20" viewBox="0 0 20 20" fill="none" xmlns="http://www.w3.org/2000/svg">
<path d="M9.58655 1.66667C6.13434 1.66667 3.3335 4.46752 3.3335 7.91973C3.3335 10.4275 4.21283 11.144 8.93519 18.0158C9.26087 18.4392 9.91223 18.4392 10.2379 18.0158C14.9603 11.144 15.8396 10.4275 15.8396 7.91973C15.8396 4.46752 13.0388 1.66667 9.58655 1.66667ZM9.58655 10.5252C8.15356 10.5252 6.98111 9.35272 6.98111 7.91973C6.98111 6.48673 8.15356 5.31429 9.58655 5.31429C11.0195 5.31429 12.192 6.48673 12.192 7.91973C12.192 9.35272 11.0195 10.5252 9.58655 10.5252Z" fill="#929394"/>
</svg>
