<svg width="34" height="28" viewBox="0 0 34 28" fill="none" xmlns="http://www.w3.org/2000/svg">
<path d="M12.8334 24.3126C12.8334 24.6772 12.9375 24.9897 13.0938 25.2501L13.9792 26.6042C14.2917 27.0209 14.9167 27.3334 15.3855 27.3334H18.6146C19.0834 27.3334 19.7084 27.0209 20.0209 26.6042L20.9063 25.2501C21.0625 24.9897 21.1667 24.6772 21.1667 24.3126V22.3334H12.8334V24.3126ZM16.948 0.666748C11.6875 0.666748 7.83337 4.98966 7.83337 9.83341C7.83337 12.073 8.61462 14.2084 10.073 15.8751C10.9584 16.8647 12.3125 18.8959 12.8334 20.6147V20.6667H21.1667V20.6147C21.6875 18.8959 23.0417 16.8647 23.9271 15.8751C25.3855 14.2084 26.1667 12.073 26.1667 9.83341C26.1667 4.78133 22.0521 0.666748 16.948 0.666748ZM17 5.66675C14.7084 5.66675 12.8334 7.54175 12.8334 9.83341C12.8334 10.3022 12.4688 10.6667 12 10.6667C11.5313 10.6667 11.1667 10.3022 11.1667 9.83341C11.1667 6.60425 13.7709 4.00008 17 4.00008C17.4688 4.00008 17.8334 4.36466 17.8334 4.83341C17.8334 5.30216 17.4688 5.66675 17 5.66675ZM6.16671 10.6667C6.16671 9.98966 5.59379 9.41675 4.91671 9.41675H1.58337C0.906291 9.41675 0.333374 9.98966 0.333374 10.6667C0.333374 11.3438 0.906291 11.9167 1.58337 11.9167H4.91671C5.59379 11.9167 6.16671 11.3438 6.16671 10.6667ZM32.4167 9.41675H29.0834C28.4063 9.41675 27.8334 9.98966 27.8334 10.6667C27.8334 11.3438 28.4063 11.9167 29.0834 11.9167H32.4167C33.0938 11.9167 33.6667 11.3438 33.6667 10.6667C33.6667 9.98966 33.0938 9.41675 32.4167 9.41675ZM7.15629 3.53133L4.29171 1.86466C3.87504 1.65633 3.40629 1.65633 2.98962 1.86466C2.62504 2.073 2.36462 2.48966 2.36462 2.95841C2.36462 3.42716 2.62504 3.84383 3.04171 4.05216L5.90629 5.71883C6.27087 5.92716 6.79171 5.92716 7.15629 5.71883C7.57296 5.5105 7.78129 5.09383 7.78129 4.62508C7.78129 4.15633 7.57296 3.73966 7.15629 3.53133ZM30.9584 17.2813L28.0938 15.6147C27.7292 15.4063 27.2084 15.4063 26.8438 15.6147C26.4271 15.823 26.2188 16.2397 26.2188 16.7084C26.2188 17.1772 26.4271 17.5938 26.8438 17.8022L29.7084 19.4688C30.3334 19.7813 31.0625 19.573 31.4271 19.0001C31.7396 18.4272 31.5313 17.6459 30.9584 17.2813ZM5.90629 15.6147L3.04171 17.2813C2.62504 17.4897 2.36462 17.9063 2.36462 18.3751C2.36462 18.8438 2.62504 19.2605 2.98962 19.4688C3.40629 19.6772 3.87504 19.6772 4.29171 19.4688L7.15629 17.8022C7.72921 17.4376 7.93754 16.6563 7.62504 16.0834C7.26046 15.5105 6.47921 15.3022 5.90629 15.6147ZM27.4688 5.87508C27.6771 5.87508 27.8855 5.823 28.0938 5.71883L30.9584 4.05216C31.5834 3.68758 31.7396 2.90633 31.4271 2.33341C31.0625 1.7605 30.3334 1.55216 29.7084 1.86466L26.8438 3.53133C26.323 3.84383 26.1146 4.41675 26.2709 4.93758C26.4271 5.5105 26.8959 5.87508 27.4688 5.87508Z" fill="#5C80FF"/>
</svg>
