<svg width="16" height="14" viewBox="0 0 16 14" fill="none" xmlns="http://www.w3.org/2000/svg">
<path fill-rule="evenodd" clip-rule="evenodd" d="M9.77417 2.62254L8.00022 4.45052L6.22511 2.62135C5.29354 1.65822 3.89699 1.60064 3.03787 2.33232C1.94046 3.26947 1.87643 4.97488 2.86429 5.99613L7.99875 11.2978L13.1339 5.99541C14.1234 4.97428 14.0598 3.26941 12.9626 2.33239C12.1042 1.60119 10.7097 1.65723 9.77417 2.62254ZM14.044 1.06419C15.8839 2.63447 15.9805 5.45278 14.3311 7.15489L8.66231 13.0083C8.29611 13.3862 7.70139 13.3862 7.33519 13.0083L1.66635 7.15489C0.0198999 5.45278 0.116578 2.63447 1.95639 1.06419C3.40306 -0.168655 5.48727 -0.0907466 6.96143 1.04925C7.12321 1.17436 7.27764 1.31226 7.42308 1.46262L8.00022 2.05733L8.57735 1.46262C8.72204 1.31333 8.87553 1.17633 9.03623 1.05194C10.5123 -0.0906237 12.5962 -0.169622 14.044 1.06419Z" fill="white"/>
</svg>
