<svg width="24" height="24" viewBox="0 0 24 24" fill="none" xmlns="http://www.w3.org/2000/svg">
<path d="M11.875 21C13.1167 21 14.124 19.9928 14.124 18.75H9.62608C9.62608 19.9928 10.6333 21 11.875 21ZM19.4473 15.7368C18.7681 15.0069 17.4972 13.909 17.4972 10.3125C17.4972 7.58086 15.5819 5.39414 12.9993 4.85766V4.125C12.9993 3.50379 12.4959 3 11.875 3C11.2542 3 10.7507 3.50379 10.7507 4.125V4.85766C8.16815 5.39414 6.25284 7.58086 6.25284 10.3125C6.25284 13.909 4.98194 15.0069 4.30272 15.7368C4.09178 15.9635 3.99827 16.2346 4.00002 16.5C4.00389 17.0766 4.45635 17.625 5.12854 17.625H18.6215C19.2937 17.625 19.7465 17.0766 19.75 16.5C19.7518 16.2346 19.6583 15.9632 19.4473 15.7368Z" fill="white"/>
<circle cx="17" cy="8" r="2.5" fill="#EC4025" stroke="black"/>
</svg>
