<svg width="4" height="15" viewBox="0 0 4 15" fill="none" xmlns="http://www.w3.org/2000/svg">
<path d="M2 12C2.82843 12 3.5 12.6716 3.5 13.5C3.5 14.3284 2.82843 15 2 15C1.17157 15 0.5 14.3284 0.5 13.5C0.5 12.6716 1.17157 12 2 12Z" fill="white"/>
<path d="M2 6C2.82843 6 3.5 6.67157 3.5 7.5C3.5 8.32843 2.82843 9 2 9C1.17157 9 0.5 8.32843 0.5 7.5C0.5 6.67157 1.17157 6 2 6Z" fill="white"/>
<path d="M3.5 1.5C3.5 0.671573 2.82843 0 2 0C1.17157 0 0.5 0.671573 0.5 1.5C0.5 2.32843 1.17157 3 2 3C2.82843 3 3.5 2.32843 3.5 1.5Z" fill="white"/>
</svg>
