<svg width="227" height="9" viewBox="0 0 227 9" fill="none" xmlns="http://www.w3.org/2000/svg">
<path d="M9.636 1.864H5.844V9H4.468V1.864H0.692V0.743999H9.636V1.864ZM20.7085 7.048C20.7085 7.80533 20.5752 8.32267 20.3085 8.6C20.0418 8.86667 19.5352 9 18.7885 9H13.8925C13.1458 9 12.6338 8.86667 12.3565 8.6C12.0898 8.32267 11.9565 7.80533 11.9565 7.048V0.743999H13.3325V7.848H19.3485V0.743999H20.7085V7.048ZM34.235 9H32.187L28.827 5.784H26.395V9H25.019V0.743999H31.675C32.2723 0.743999 32.7097 0.866666 32.987 1.112C33.275 1.35733 33.419 1.768 33.419 2.344V4.184C33.419 5.00533 33.099 5.50667 32.459 5.688C32.2563 5.752 31.5897 5.784 30.459 5.784L34.235 9ZM32.027 3.864V2.664C32.027 2.344 31.9577 2.12533 31.819 2.008C31.691 1.88 31.4617 1.816 31.131 1.816H26.395V4.712H31.131C31.4617 4.712 31.691 4.65333 31.819 4.536C31.9577 4.41867 32.027 4.19467 32.027 3.864ZM46.3265 9H45.5585L39.2065 3.256C39.0038 3.07467 38.7265 2.76533 38.3745 2.328C38.4385 2.81867 38.4705 3.384 38.4705 4.024V9H37.2065V0.743999H38.0705L44.2465 6.264C44.5452 6.53067 44.8598 6.87733 45.1905 7.304C45.1052 6.792 45.0625 6.17867 45.0625 5.464V0.743999H46.3265V9ZM65.8611 9H64.4851V5.256H57.9731V9H56.5971V0.743999H57.9731V4.12H64.4851V0.743999H65.8611V9ZM78.896 7.048C78.896 7.80533 78.7627 8.32267 78.496 8.6C78.2293 8.86667 77.7227 9 76.976 9H72.08C71.3333 9 70.8213 8.86667 70.544 8.6C70.2773 8.32267 70.144 7.80533 70.144 7.048V0.743999H71.52V7.848H77.536V0.743999H78.896V7.048ZM93.3505 9H92.0865V3.432C92.0865 3.432 92.1078 3.02667 92.1505 2.216C91.9692 2.6 91.8038 2.89867 91.6545 3.112L88.5025 7.704H88.1505L84.8705 3.24C84.6145 2.888 84.4278 2.54667 84.3105 2.216C84.3532 2.536 84.3745 2.87733 84.3745 3.24V9H83.2065V0.743999H84.3265L88.3425 6.12L92.0865 0.743999H93.3505V9ZM106.62 9H105.1L104.044 6.968H98.4596L97.4036 9H96.0436L100.556 0.743999H102.028L106.62 9ZM103.484 5.912L101.26 1.688L99.0356 5.912H103.484ZM118.405 9H117.637L111.285 3.256C111.082 3.07467 110.805 2.76533 110.453 2.328C110.517 2.81867 110.549 3.384 110.549 4.024V9H109.285V0.743999H110.149L116.325 6.264C116.623 6.53067 116.938 6.87733 117.269 7.304C117.183 6.792 117.141 6.17867 117.141 5.464V0.743999H118.405V9ZM137.075 4.184C137.075 4.76 136.931 5.17067 136.643 5.416C136.366 5.66133 135.929 5.784 135.331 5.784H130.051V9H128.675V0.743999H135.331C135.929 0.743999 136.366 0.866666 136.643 1.112C136.931 1.35733 137.075 1.768 137.075 2.344V4.184ZM135.683 3.832V2.68C135.683 2.34933 135.614 2.12533 135.475 2.008C135.347 1.88 135.118 1.816 134.787 1.816H130.051V4.696H134.787C135.118 4.696 135.347 4.63733 135.475 4.52C135.614 4.392 135.683 4.16267 135.683 3.832ZM149.913 7.048C149.913 7.80533 149.779 8.32267 149.513 8.6C149.246 8.86667 148.739 9 147.993 9H142.281C141.534 9 141.022 8.86667 140.745 8.6C140.478 8.32267 140.345 7.80533 140.345 7.048V2.696C140.345 1.93867 140.478 1.42667 140.745 1.16C141.022 0.882666 141.534 0.743999 142.281 0.743999H147.993C148.739 0.743999 149.246 0.882666 149.513 1.16C149.779 1.42667 149.913 1.93867 149.913 2.696V7.048ZM148.553 7.848V1.864H141.721V7.848H148.553ZM165.217 0.743999L162.225 9H161.201L158.913 2.76L156.545 9H155.457L152.465 0.743999H153.857L156.097 7.304L158.529 0.743999H159.377L161.729 7.304L163.985 0.743999H165.217ZM175.894 9H167.878V0.743999H175.83V1.848H169.254V4.152H173.27V5.24H169.254V7.864H175.894V9ZM188.391 9H186.343L182.983 5.784H180.551V9H179.175V0.743999H185.831C186.429 0.743999 186.866 0.866666 187.143 1.112C187.431 1.35733 187.575 1.768 187.575 2.344V4.184C187.575 5.00533 187.255 5.50667 186.615 5.688C186.413 5.752 185.746 5.784 184.615 5.784L188.391 9ZM186.183 3.864V2.664C186.183 2.344 186.114 2.12533 185.975 2.008C185.847 1.88 185.618 1.816 185.287 1.816H180.551V4.712H185.287C185.618 4.712 185.847 4.65333 185.975 4.536C186.114 4.41867 186.183 4.19467 186.183 3.864ZM193.091 3.56C193.091 3.74133 193.064 3.85867 193.011 3.912C192.968 3.95467 192.856 3.976 192.675 3.976H191.651C191.437 3.976 191.331 3.83733 191.331 3.56V2.648C191.331 2.46667 191.352 2.34933 191.395 2.296C191.448 2.24267 191.565 2.216 191.747 2.216H192.675C192.856 2.216 192.968 2.24267 193.011 2.296C193.064 2.34933 193.091 2.46667 193.091 2.648V3.56ZM193.091 8.584C193.091 8.76533 193.064 8.88267 193.011 8.936C192.968 8.97867 192.856 9 192.675 9H191.651C191.437 9 191.331 8.86133 191.331 8.584V7.672C191.331 7.49067 191.352 7.37333 191.395 7.32C191.448 7.26667 191.565 7.24 191.747 7.24H192.675C192.856 7.24 192.968 7.26667 193.011 7.32C193.064 7.37333 193.091 7.49067 193.091 7.672V8.584ZM212.788 7.048C212.788 7.80533 212.654 8.32267 212.388 8.6C212.121 8.86667 211.614 9 210.868 9H205.156C204.409 9 203.897 8.86667 203.62 8.6C203.353 8.32267 203.22 7.80533 203.22 7.048V2.696C203.22 1.93867 203.353 1.42667 203.62 1.16C203.897 0.882666 204.409 0.743999 205.156 0.743999H210.868C211.614 0.743999 212.121 0.882666 212.388 1.16C212.654 1.42667 212.788 1.93867 212.788 2.696V7.048ZM211.428 7.848V1.864H204.596V7.848H211.428ZM226.092 9H225.324L218.972 3.256C218.769 3.07467 218.492 2.76533 218.14 2.328C218.204 2.81867 218.236 3.384 218.236 4.024V9H216.972V0.743999H217.836L224.012 6.264C224.311 6.53067 224.625 6.87733 224.956 7.304C224.871 6.792 224.828 6.17867 224.828 5.464V0.743999H226.092V9Z" fill="white"/>
</svg>
