<svg width="12" height="16" viewBox="0 0 12 16" fill="none" xmlns="http://www.w3.org/2000/svg">
<path d="M10.9997 12.452C10.9997 12.452 10.2453 13.4053 8.94313 14.0397C8.08649 14.4575 6.94096 14.723 5.68544 14.6564C3.36772 14.5341 1.96775 13.3164 1.47221 12.8631C1.33444 12.7386 1.2611 12.6653 1.2611 12.6653L2.88329 11.032C2.88329 11.032 3.06328 11.1853 3.31772 11.3898C3.84548 11.8109 4.87101 12.4164 6.21209 12.3586C8.23871 12.272 9.00646 10.9909 9.09868 10.3776C9.1909 9.76537 9.12202 8.47874 7.34762 8.10097C6.4532 7.91098 5.591 8.06875 4.79768 7.92875C2.89551 7.59321 2.79329 6.34435 2.90106 5.62214C3.00995 4.89883 3.76104 3.72775 5.78766 3.64108C7.12873 3.58331 8.15538 4.18885 8.68203 4.60995C8.93647 4.81439 9.11757 4.96883 9.11757 4.96883L10.7398 3.33442C10.7398 3.33442 10.6653 3.26109 10.5275 3.13665C10.032 2.68333 8.63203 1.46669 6.31431 1.34336C5.05879 1.27781 3.91437 1.53669 3.05661 1.95446C1.75443 2.58889 1 3.5422 1 3.5422" stroke="white" stroke-width="1.33333"/>
</svg>
