<svg width="16" height="16" viewBox="0 0 16 16" fill="none" xmlns="http://www.w3.org/2000/svg">
<path d="M15.296 13.4707L12.3749 10.5496C12.243 10.4177 12.0643 10.3445 11.8768 10.3445H11.3992C12.2079 9.31021 12.6884 8.00934 12.6884 6.5942C12.6884 3.22774 9.96065 0.5 6.5942 0.5C3.22774 0.5 0.5 3.22774 0.5 6.5942C0.5 9.96065 3.22774 12.6884 6.5942 12.6884C8.00934 12.6884 9.31021 12.2079 10.3445 11.3992V11.8768C10.3445 12.0643 10.4177 12.243 10.5496 12.3749L13.4707 15.296C13.7461 15.5714 14.1914 15.5714 14.4639 15.296L15.2931 14.4668C15.5685 14.1914 15.5685 13.7461 15.296 13.4707ZM6.5942 10.3445C4.52276 10.3445 2.84392 8.66857 2.84392 6.5942C2.84392 4.52276 4.51983 2.84392 6.5942 2.84392C8.66564 2.84392 10.3445 4.51983 10.3445 6.5942C10.3445 8.66564 8.66857 10.3445 6.5942 10.3445Z" fill="#929394"/>
</svg>
