<svg width="20" height="20" viewBox="0 0 20 20" fill="none" xmlns="http://www.w3.org/2000/svg">
<path fill-rule="evenodd" clip-rule="evenodd" d="M12.1967 7.6738C12.7083 8.10779 13.3707 8.36957 14.0941 8.36957C15.715 8.36957 17.0289 7.05562 17.0289 5.43478C17.0289 3.81395 15.715 2.5 14.0941 2.5C12.4733 2.5 11.1593 3.81395 11.1593 5.43478C11.1593 5.62247 11.177 5.80605 11.2106 5.98395L8.16548 7.76103C7.65385 7.32701 6.99152 7.06522 6.26803 7.06522C4.6472 7.06522 3.33325 8.37916 3.33325 10C3.33325 11.6208 4.6472 12.9348 6.26803 12.9348C6.99171 12.9348 7.65421 12.6729 8.16589 12.2386L11.2112 14.0132C11.1771 14.192 11.1593 14.3765 11.1593 14.5652C11.1593 16.1861 12.4733 17.5 14.0941 17.5C15.715 17.5 17.0289 16.1861 17.0289 14.5652C17.0289 12.9444 15.715 11.6304 14.0941 11.6304C13.3717 11.6304 12.7103 11.8914 12.199 12.3243L9.15164 10.5486C9.18524 10.3709 9.20282 10.1875 9.20282 10C9.20282 9.81233 9.1852 9.62878 9.15154 9.45091L12.1967 7.6738ZM14.0941 4.45652C13.5538 4.45652 13.1159 4.8945 13.1159 5.43478C13.1159 5.60064 13.1571 5.75686 13.23 5.89373C13.2368 5.90447 13.2435 5.9154 13.25 5.9265C13.2564 5.93757 13.2626 5.94871 13.2686 5.95992C13.4423 6.23235 13.7471 6.41304 14.0941 6.41304C14.6344 6.41304 15.0724 5.97506 15.0724 5.43478C15.0724 4.8945 14.6344 4.45652 14.0941 4.45652ZM7.09421 9.47592C7.10002 9.48678 7.10605 9.49757 7.11231 9.5083C7.11858 9.51903 7.12502 9.52961 7.13163 9.54002C7.20481 9.67713 7.24629 9.83372 7.24629 10C7.24629 10.1663 7.2048 10.3229 7.13159 10.4601C7.12488 10.4706 7.11835 10.4814 7.112 10.4923C7.10587 10.5028 7.09995 10.5134 7.09426 10.524C6.92071 10.7971 6.61553 10.9783 6.26803 10.9783C5.72776 10.9783 5.28977 10.5403 5.28977 10C5.28977 9.45972 5.72776 9.02174 6.26803 9.02174C6.6155 9.02174 6.92066 9.2029 7.09421 9.47592ZM13.1159 14.5652C13.1159 14.415 13.1497 14.2726 13.2103 14.1454C13.2267 14.1222 13.2422 14.098 13.2568 14.073C13.2706 14.0493 13.2833 14.0253 13.2949 14.001C13.4721 13.7505 13.764 13.587 14.0941 13.587C14.6344 13.587 15.0724 14.0249 15.0724 14.5652C15.0724 15.1055 14.6344 15.5435 14.0941 15.5435C13.5538 15.5435 13.1159 15.1055 13.1159 14.5652Z" fill="#0DC523"/>
</svg>
