<svg width="62" height="76" viewBox="0 0 62 76" fill="none" xmlns="http://www.w3.org/2000/svg">
<path d="M61.771 45.0312C61.771 61.8623 48.1333 75.5 31.3022 75.5C14.4712 75.5 0.833496 61.8623 0.833496 45.0312C0.833496 29.7969 12.0103 17.1699 26.6147 14.9287V9.875H22.5132C21.5464 9.875 20.7554 9.08398 20.7554 8.11719V2.25781C20.7554 1.29102 21.5464 0.5 22.5132 0.5H40.0913C41.0581 0.5 41.8491 1.29102 41.8491 2.25781V8.11719C41.8491 9.08398 41.0581 9.875 40.0913 9.875H35.9897V14.9287C41.4829 15.7783 46.4927 18.0928 50.5942 21.4619L54.6226 17.4336C55.311 16.7451 56.4243 16.7451 57.1128 17.4336L61.2583 21.5791C61.9468 22.2676 61.9468 23.3809 61.2583 24.0693L56.9517 28.376L56.8638 28.4639C59.9692 33.21 61.771 38.9082 61.771 45.0312ZM35.9897 50.3047V28.1123C35.9897 27.1455 35.1987 26.3545 34.2319 26.3545H28.3726C27.4058 26.3545 26.6147 27.1455 26.6147 28.1123V50.3047C26.6147 51.2715 27.4058 52.0625 28.3726 52.0625H34.2319C35.1987 52.0625 35.9897 51.2715 35.9897 50.3047Z" fill="white"/>
</svg>
