<svg width="24" height="24" viewBox="0 0 24 24" fill="none" xmlns="http://www.w3.org/2000/svg">
<path d="M17.9997 17.3425C17.9997 17.3425 17.0944 18.4864 15.5318 19.2478C14.5038 19.7491 13.1292 20.0677 11.6225 19.9877C8.84126 19.8411 7.1613 18.3798 6.56665 17.8358C6.40132 17.6865 6.31333 17.5985 6.31333 17.5985L8.25994 15.6385C8.25994 15.6385 8.47594 15.8225 8.78126 16.0678C9.41458 16.5732 10.6452 17.2998 12.2545 17.2305C14.6864 17.1265 15.6078 15.5892 15.7184 14.8532C15.8291 14.1185 15.7464 12.5746 13.6171 12.1213C12.5438 11.8933 11.5092 12.0826 10.5572 11.9146C8.27461 11.5119 8.15195 10.0133 8.28128 9.14667C8.41194 8.27869 9.31325 6.8734 11.7452 6.7694C13.3545 6.70007 14.5864 7.42671 15.2184 7.93204C15.5238 8.17736 15.7411 8.36269 15.7411 8.36269L17.6877 6.40141C17.6877 6.40141 17.5984 6.31341 17.433 6.16408C16.8384 5.62009 15.1584 4.16013 12.3772 4.01213C10.8705 3.93347 9.49725 4.24413 8.46794 4.74545C6.90531 5.50676 6 6.65073 6 6.65073" stroke="#929394" stroke-width="1.6"/>
</svg>
