<svg width="24" height="24" viewBox="0 0 24 24" fill="none" xmlns="http://www.w3.org/2000/svg">
<path d="M4.25787 7.25999V10.2226L3.66536 10.2226C2.68364 10.2226 1.88782 11.0184 1.88782 12.0001C1.88782 12.9818 2.68364 13.7776 3.66536 13.7776H4.25787L4.25787 16.7402C4.25787 17.0677 4.52289 17.3327 4.85039 17.3327H7.25994C7.58745 17.3327 7.85246 17.0677 7.85246 16.7402L7.85246 7.25999C7.85246 6.93249 7.58745 6.66748 7.25994 6.66748L4.85039 6.66748C4.52289 6.66748 4.25787 6.93249 4.25787 7.25999Z" fill="#929394"/>
<path d="M9.03749 10.2226H14.9626V13.7776H9.03749V10.2226Z" fill="#929394"/>
<path d="M19.7422 10.2226L20.3348 10.2226C21.3165 10.2226 22.1123 11.0184 22.1123 12.0001C22.1123 12.9818 21.3165 13.7776 20.3348 13.7776L19.7422 13.7776V16.7402C19.7422 17.0677 19.4772 17.3327 19.1497 17.3327H16.7402C16.4127 17.3327 16.1477 17.0677 16.1477 16.7402L16.1477 7.25999C16.1477 6.93249 16.4127 6.66748 16.7402 6.66748L19.1497 6.66748C19.4772 6.66748 19.7422 6.93249 19.7422 7.25999V10.2226Z" fill="#929394"/>
</svg>
