<svg width="80" height="80" viewBox="0 0 80 80" fill="none" xmlns="http://www.w3.org/2000/svg">
<path d="M39.9741 79.9483C62.0513 79.9483 79.9483 62.0513 79.9483 39.9741C79.9483 17.897 62.0513 0 39.9741 0C17.897 0 0 17.897 0 39.9741C0 62.0513 17.897 79.9483 39.9741 79.9483Z" fill="#FFFB53"/>
<path d="M27.2529 27.7699C26.5806 27.0459 25.6498 26.2185 24.8741 25.7531L24.6155 25.5979C24.5638 25.7531 24.4604 26.1151 24.4087 26.5805C24.2536 27.4596 24.3053 28.3387 24.3053 29.5798C24.3053 30.7692 24.357 32.2689 24.2536 33.7686C24.1501 35.2683 23.8916 36.8197 23.5813 38.3193C22.9607 41.3187 21.9782 44.1112 20.8922 46.7486L20.8405 46.9037C19.496 50.265 15.6692 51.9199 12.3078 50.5753C8.9465 49.2308 7.29169 45.404 8.63623 42.0427C8.84308 41.4738 9.20507 40.905 9.56706 40.4396C11.015 38.5779 12.3078 36.7162 13.3421 34.8029C13.8592 33.872 14.3247 32.8895 14.6866 31.8552C15.0486 30.8209 15.3589 29.735 15.7209 28.3904C16.0829 27.0459 16.5483 25.3911 17.324 23.8397C17.686 23.064 18.1514 22.2366 18.8754 21.3575C19.2374 20.9438 19.6511 20.4783 20.2199 20.0646C20.7888 19.6509 21.4611 19.2889 22.2367 19.0821C23.0124 18.8752 23.8398 18.8235 24.5121 18.927C25.2361 19.0304 25.8049 19.2372 26.3221 19.4958C27.3046 20.0129 28.0286 20.5818 28.6492 21.1506C29.2697 21.7195 29.7351 22.34 30.2005 22.9606C30.666 23.5811 31.028 24.15 31.4417 24.874C32.1139 26.0634 31.7002 27.6147 30.5108 28.287C29.4766 28.9593 28.1837 28.7524 27.408 27.925L27.2529 27.7699Z" fill="#7B5735"/>
<path d="M52.6958 27.7699C53.3681 27.0459 54.2989 26.2185 55.0746 25.7531L55.3332 25.5979C55.3849 25.7531 55.4883 26.1151 55.54 26.5805C55.6952 27.4596 55.6434 28.3387 55.6434 29.5798C55.5917 30.7692 55.5917 32.2689 55.6952 33.7686C55.7986 35.2683 56.0571 36.8197 56.3674 38.3193C56.988 41.3187 57.9705 44.1112 59.0565 46.7486L59.1082 46.9037C60.4528 50.265 64.2795 51.9199 67.6409 50.5753C71.0022 49.2308 72.657 45.404 71.3125 42.0427C71.1056 41.4738 70.7436 40.905 70.3816 40.4396C68.9337 38.5779 67.6409 36.7162 66.6066 34.8029C66.0895 33.872 65.624 32.8895 65.2621 31.8552C64.9001 30.8209 64.5898 29.735 64.2278 28.3904C63.8658 27.0459 63.4004 25.3911 62.6247 23.8397C62.2627 23.064 61.7973 22.2366 61.0733 21.3575C60.7113 20.9438 60.2976 20.4783 59.7288 20.0646C59.1599 19.6509 58.4877 19.2889 57.712 19.0821C56.9363 18.8752 56.1089 18.8235 55.4366 18.927C54.7126 19.0304 54.1438 19.2372 53.6266 19.4958C52.5924 20.0129 51.9201 20.5818 51.2996 21.1506C50.679 21.7195 50.2136 22.34 49.7482 22.9606C49.2827 23.5811 48.9208 24.15 48.5071 24.874C47.8348 26.0634 48.2485 27.6147 49.4379 28.287C50.4721 28.8559 51.7133 28.649 52.489 27.8216L52.6958 27.7699Z" fill="#7B5735"/>
<path d="M58.3839 40.8015C58.3839 30.8726 50.3167 22.8054 40.4395 22.8054C30.5106 22.8054 22.4951 30.8726 22.4951 40.8015C22.4951 41.0601 18.1512 45.9211 21.1506 51.7647C22.8054 54.9709 31.8034 60.9179 40.3878 61.0213C49.4893 61.1247 58.2288 55.1777 59.9353 51.7647C62.6761 45.9211 58.3839 41.0601 58.3839 40.8015Z" fill="#8A603C"/>
<path d="M44.8354 37.9573C44.8354 39.457 46.0766 40.6981 47.5762 40.6981C49.0759 40.6981 50.317 39.457 50.317 37.9573C50.317 36.4577 49.0759 35.2166 47.5762 35.2166C46.0766 35.2166 44.8354 36.406 44.8354 37.9573Z" fill="#3B3E43"/>
<path d="M47.0073 35.7854C47.0073 36.5611 47.6796 37.2334 48.4553 37.2334C49.231 37.2334 49.9033 36.5611 49.9033 35.7854C49.9033 35.0097 49.231 34.3374 48.4553 34.3374C47.6279 34.3374 47.0073 35.0097 47.0073 35.7854Z" fill="white"/>
<path d="M36.6647 37.9573C36.6647 39.457 35.4236 40.6981 33.9239 40.6981C32.4242 40.6981 31.1831 39.457 31.1831 37.9573C31.1831 36.4577 32.4242 35.2166 33.9239 35.2166C35.4236 35.2166 36.6647 36.406 36.6647 37.9573Z" fill="#3B3E43"/>
<path d="M34.5444 35.7854C34.5444 36.5611 33.8721 37.2334 33.0964 37.2334C32.3207 37.2334 31.6484 36.5611 31.6484 35.7854C31.6484 35.0097 32.3207 34.3374 33.0964 34.3374C33.8721 34.3374 34.5444 35.0097 34.5444 35.7854Z" fill="white"/>
<path d="M53.6267 53.2127C53.6267 57.4014 47.628 63.2967 40.233 63.2967C32.8381 63.2967 26.8394 57.4014 26.8394 53.2127C26.8394 49.0239 32.8381 45.6109 40.233 45.6109C47.5763 45.6626 53.6267 49.0239 53.6267 53.2127Z" fill="#F3DBBD"/>
<path d="M44.1113 45.6626C44.1113 47.0588 42.4565 48.8171 40.4397 48.8171C38.4229 48.8171 36.7681 47.0588 36.7681 45.6626C36.7681 44.2663 38.4229 43.1286 40.4397 43.1286C42.4565 43.1286 44.1113 44.2663 44.1113 45.6626Z" fill="#3B3E43"/>
<path d="M36.6645 53.1092C35.6819 53.1092 34.5443 52.5921 33.3549 51.6096C33.1997 51.4544 33.148 51.2476 33.3031 51.0924C33.4583 50.9373 33.6651 50.8856 33.8203 51.0407C35.2165 52.1784 36.4059 52.5921 37.3885 52.2301C39.3536 51.5061 39.9224 47.9897 39.9224 47.9379C39.9741 47.7311 40.1293 47.576 40.3361 47.6277C40.543 47.6794 40.6981 47.8345 40.6464 48.0414C40.6464 48.1965 39.9741 52.0233 37.647 52.9024C37.3368 53.0058 36.9748 53.1092 36.6645 53.1092Z" fill="#3B3E43"/>
<path d="M43.5941 53.4195C43.2838 53.4195 42.9735 53.3678 42.715 53.2644C40.4913 52.3853 40.0776 48.1965 40.0259 48.0414C40.0259 47.8345 40.181 47.6277 40.3879 47.6277C40.5947 47.6277 40.8016 47.7828 40.8016 47.9897C40.905 49.0756 41.5256 51.9716 43.0252 52.5921C43.8526 52.9024 44.8869 52.5404 46.128 51.4544C46.2831 51.2993 46.5417 51.351 46.6451 51.5061C46.8003 51.6613 46.7486 51.9198 46.5934 52.0233C45.5075 52.9541 44.4732 53.4195 43.5941 53.4195Z" fill="#3B3E43"/>
<path d="M42.8182 44.8869C42.7148 45.1972 42.2494 45.404 41.7322 45.2489C41.2151 45.0937 40.8531 44.7318 40.9048 44.4215C41.0082 44.1112 41.4737 43.9043 42.0425 44.0595C42.5596 44.2146 42.9216 44.5766 42.8182 44.8869Z" fill="white"/>
<path d="M31.1827 48.5068C31.0793 48.5068 31.0276 48.4551 30.9759 48.4034C30.9242 48.3517 26.5803 44.2146 14.2209 42.3529C14.0657 42.3012 13.9106 42.1461 13.9623 41.991C14.014 41.8358 14.1691 41.6807 14.3243 41.7324C26.8905 43.6458 31.2344 47.7828 31.3896 47.9379C31.493 48.0414 31.493 48.2482 31.3896 48.4034C31.3379 48.5068 31.2861 48.5068 31.1827 48.5068Z" fill="#3D342F"/>
<path d="M30.4588 50.1616C30.4071 50.1616 30.3554 50.1616 30.3036 50.1099C30.2519 50.0582 24.9772 47.214 12.5661 48.5068C12.411 48.5068 12.2558 48.4034 12.2041 48.2482C12.2041 48.0931 12.3075 47.9379 12.4627 47.8862C25.1324 46.5417 30.3554 49.4893 30.5622 49.5928C30.7174 49.6962 30.7691 49.8513 30.6656 50.0065C30.6656 50.1099 30.5622 50.1616 30.4588 50.1616Z" fill="#3D342F"/>
<path d="M12.4111 54.5572C12.256 54.5572 12.1526 54.4538 12.1009 54.3503C12.0491 54.1952 12.1526 53.9884 12.3077 53.9366C24.3568 49.7996 30.097 51.4544 30.3555 51.5578C30.5107 51.6096 30.6141 51.7647 30.5624 51.9715C30.5107 52.1267 30.3555 52.2301 30.1487 52.1784C30.097 52.1784 24.3051 50.5236 12.5146 54.5572C12.4628 54.5572 12.4628 54.5572 12.4111 54.5572Z" fill="#3D342F"/>
<path d="M49.0759 49.1274C48.9725 49.1274 48.9208 49.0756 48.8691 49.0239C48.7656 48.9205 48.7656 48.7137 48.8691 48.5585C49.0242 48.4034 53.3681 44.2663 65.9344 42.353C66.0895 42.353 66.2446 42.4564 66.2964 42.6115C66.3481 42.7667 66.1929 42.9218 66.0378 42.9735C53.6784 44.8352 49.3345 48.9722 49.2828 49.0239C49.2311 49.1274 49.1794 49.1274 49.0759 49.1274Z" fill="#3D342F"/>
<path d="M49.7997 50.7822C49.6963 50.7822 49.5928 50.7305 49.5411 50.627C49.4377 50.4719 49.4894 50.265 49.6445 50.2133C49.8514 50.1099 55.0744 47.214 67.7441 48.5068C67.8992 48.5068 68.0544 48.6619 68.0027 48.8688C68.0027 49.0239 67.8475 49.1791 67.6407 49.1274C55.1778 47.8345 49.9548 50.7305 49.9031 50.7305C49.9031 50.7822 49.8514 50.7822 49.7997 50.7822Z" fill="#3D342F"/>
<path d="M67.8478 55.1778C67.7961 55.1778 67.7961 55.1778 67.7444 55.1778C55.9538 51.1442 50.162 52.7473 50.1103 52.799C49.9551 52.8507 49.7483 52.7473 49.6966 52.5921C49.6448 52.437 49.7483 52.2301 49.9034 52.1784C50.162 52.1267 55.9021 50.4719 67.9512 54.5572C68.1064 54.6089 68.2098 54.8158 68.1581 54.9709C68.1064 55.0743 68.003 55.1778 67.8478 55.1778Z" fill="#3D342F"/>
</svg>
