<svg width="80" height="80" viewBox="0 0 80 80" fill="none" xmlns="http://www.w3.org/2000/svg">
<path d="M80 39.9741C80 62.0556 62.1073 79.9483 40.0259 79.9483C17.8927 80 0 62.1073 0 39.9741C0 17.841 17.8927 0 39.9741 0C62.1073 0 80 17.8927 80 39.9741Z" fill="#4EFFF4"/>
<path d="M32.7342 25.8565C33.0962 30.1487 19.5991 45.1455 19.5991 45.1455C19.5991 45.1455 19.806 44.8352 19.806 27.201C20.0128 20.0129 25.753 12.4111 26.4769 12.1526C27.2526 11.9457 32.3722 21.5643 32.7342 25.8565Z" fill="#825D42"/>
<path d="M47.4725 25.3394C47.1105 29.6315 60.6076 44.6283 60.6076 44.6283C60.6076 44.6283 60.4007 44.318 60.4007 26.6839C60.1939 19.4958 54.4537 11.8423 53.7298 11.6354C52.9541 11.4286 47.8345 21.0472 47.4725 25.3394Z" fill="#825D42"/>
<mask id="mask0" mask-type="alpha" maskUnits="userSpaceOnUse" x="19" y="22" width="42" height="47">
<path d="M60.7108 47.6277C61.6934 61.5385 52.3333 68.3129 39.3534 68.3129C26.3734 68.3129 16.9616 60.6076 19.5473 43.0252C21.3573 30.5624 26.994 22.5469 40.9565 22.5469C58.1769 22.5986 59.9351 35.8371 60.7108 47.6277Z" fill="#966A4D"/>
</mask>
<g mask="url(#mask0)">
<path d="M60.7108 47.6277C61.6934 61.5385 52.3333 68.3129 39.3534 68.3129C26.3734 68.3129 16.9616 60.6076 19.5473 43.0252C21.3573 30.5624 26.994 22.5469 40.9565 22.5469C58.1769 22.5986 59.9351 35.8371 60.7108 47.6277Z" fill="#966A4D"/>
<path d="M40.4392 47.9897C35.2679 47.9897 26.4767 55.9018 24.5633 69.3471C22.8051 81.6031 56.6254 79.8449 55.1774 67.9509C54.0915 58.5908 45.6105 47.9897 40.4392 47.9897Z" fill="#F3DBBD"/>
</g>
<path d="M46.3862 40.5947C46.3862 43.5941 48.8167 46.0246 51.8161 46.0246C54.8154 46.0246 57.246 43.5941 57.246 40.5947C57.246 37.5954 54.8154 35.1648 51.8161 35.1648C48.8685 35.1648 46.3862 37.5954 46.3862 40.5947Z" fill="#F3DBBD"/>
<path d="M48.4028 40.6464C48.4028 42.4564 49.8508 43.9043 51.6608 43.9043C53.4707 43.9043 54.9187 42.4564 54.9187 40.6464C54.9187 38.8365 53.4707 37.3885 51.6608 37.3885C49.8508 37.3885 48.4028 38.8365 48.4028 40.6464Z" fill="#3D342F"/>
<path d="M51.1953 37.9573C51.1953 38.7847 51.8676 39.5087 52.7467 39.5087C53.6258 39.5087 54.2981 38.8365 54.2981 37.9573C54.2981 37.1299 53.6258 36.4059 52.7467 36.4059C51.8676 36.4059 51.1953 37.1299 51.1953 37.9573Z" fill="white"/>
<path d="M34.4408 41.0601C34.4408 44.0595 32.0103 46.49 29.0109 46.49C26.0116 46.49 23.5811 44.0595 23.5811 41.0601C23.5811 38.0608 26.0116 35.6302 29.0109 35.6302C32.0103 35.6302 34.4408 38.0608 34.4408 41.0601Z" fill="#F3DBBD"/>
<path d="M31.6482 41.4221C31.6482 43.2321 30.2002 44.68 28.3902 44.68C26.5803 44.68 25.1323 43.2321 25.1323 41.4221C25.1323 39.6122 26.5803 38.1642 28.3902 38.1642C30.2002 38.2159 31.6482 39.6639 31.6482 41.4221Z" fill="#3D342F"/>
<path d="M28.8557 38.7848C28.8557 39.6122 28.1834 40.3362 27.3043 40.3362C26.4769 40.3362 25.7529 39.6639 25.7529 38.7848C25.7529 37.9574 26.4252 37.2334 27.3043 37.2334C28.1834 37.2334 28.8557 37.9056 28.8557 38.7848Z" fill="white"/>
<path d="M46.4898 53.2127C46.4898 54.4538 41.7839 56.4189 40.1291 56.4189C38.4743 56.4189 33.5615 54.5055 33.5615 53.2644C33.5615 52.0233 36.3023 51.0407 39.7154 51.0407C43.0767 51.0407 46.4898 51.9715 46.4898 53.2127Z" fill="#3D342F"/>
<path d="M40.1808 65.2618C36.6126 65.2618 33.9752 63.0898 33.9235 63.0381C33.7167 62.883 33.7167 62.5727 33.8718 62.3659C34.027 62.159 34.3372 62.159 34.5441 62.3141C34.7509 62.4693 39.8188 66.658 45.3004 62.4693C45.5072 62.3141 45.8175 62.3659 45.9727 62.5727C46.1278 62.7796 46.0761 63.0898 45.8692 63.245C43.9041 64.7447 41.939 65.2618 40.1808 65.2618Z" fill="#3D342F"/>
<path d="M40.7495 55.126H39.5601V65.1584H40.7495V55.126Z" fill="#3D342F"/>
</svg>
