<svg width="80" height="80" viewBox="0 0 80 80" fill="none" xmlns="http://www.w3.org/2000/svg">
<path d="M39.9741 79.9483C62.0513 79.9483 79.9483 62.0513 79.9483 39.9741C79.9483 17.897 62.0513 0 39.9741 0C17.897 0 0 17.897 0 39.9741C0 62.0513 17.897 79.9483 39.9741 79.9483Z" fill="#82ECE7"/>
<path d="M47.1626 33.872C50.8859 18.8235 63.0902 13.5488 63.0902 13.5488C63.0902 13.5488 71.8297 36.3542 55.1264 41.7841L47.1626 33.872Z" fill="#D45F26"/>
<path d="M48.9722 35.2165C53.7298 20.9438 61.3833 18.4615 61.3833 18.4615C61.3833 18.4615 68.0026 32.062 53.4712 40.3878L48.9722 35.2165Z" fill="#F3DBBD"/>
<path d="M32.7862 33.872C29.0629 18.8235 16.8586 13.6005 16.8586 13.6005C16.8586 13.6005 8.17083 36.3542 24.8224 41.7841L32.7862 33.872Z" fill="#D45F26"/>
<path d="M31.0282 35.2165C26.2706 20.9438 18.6171 18.4615 18.6171 18.4615C18.6171 18.4615 11.9979 32.1138 26.5292 40.3878L31.0282 35.2165Z" fill="#F3DBBD"/>
<mask id="mask0" mask-type="alpha" maskUnits="userSpaceOnUse" x="19" y="29" width="42" height="38">
<path d="M58.4358 48.3517C58.4358 38.2159 50.2134 29.9936 40.0777 29.9936C29.9419 29.9936 21.7196 38.2159 21.7196 48.3517C21.7196 48.6102 17.324 53.5747 20.3233 59.5217C21.9781 62.8313 31.1831 66.3478 39.9743 66.3995C49.2826 66.5029 58.1772 62.9864 59.9355 59.5217C62.8831 53.5747 58.4358 48.5585 58.4358 48.3517Z" fill="#EA692B"/>
</mask>
<g mask="url(#mask0)">
<path d="M58.4358 48.3517C58.4358 38.2159 50.2134 29.9936 40.0777 29.9936C29.9419 29.9936 21.7196 38.2159 21.7196 48.3517C21.7196 48.6102 17.324 53.5747 20.3233 59.5217C21.9781 62.8313 31.1831 66.3478 39.9743 66.3995C49.2826 66.5029 58.1772 62.9864 59.9355 59.5217C62.8831 53.5747 58.4358 48.5585 58.4358 48.3517Z" fill="#EA692B"/>
<path fill-rule="evenodd" clip-rule="evenodd" d="M56.8329 62.9865C51.041 67.1752 45.1974 69.192 43.7495 67.3821C42.3015 65.5721 45.7663 60.7111 51.5064 56.4706C57.2983 52.2819 63.1418 50.2651 64.5898 52.075C66.0378 53.885 62.573 58.746 56.8329 62.9865ZM23.6331 63.7104C29.2181 68.0543 34.9066 70.0711 36.4062 68.1577C37.9059 66.2443 34.5446 61.1765 28.9596 56.8326C23.3746 52.4887 17.6344 50.4719 16.1864 52.3853C14.6868 54.2986 18.0481 59.3665 23.6331 63.7104Z" fill="#F3DBBD"/>
</g>
<path d="M44.6284 45.404C44.6284 46.9554 45.8695 48.1965 47.4726 48.1965C49.024 48.1965 50.2651 46.9554 50.2651 45.404C50.2651 43.8526 49.024 42.5598 47.4726 42.5598C45.9212 42.6115 44.6284 43.8526 44.6284 45.404Z" fill="#3B3E43"/>
<path d="M46.8003 43.232C46.8003 44.0594 47.4726 44.7317 48.3 44.7317C49.1274 44.7317 49.7996 44.0594 49.7996 43.232C49.7996 42.4046 49.1274 41.7324 48.3 41.7324C47.4726 41.7324 46.8003 42.4046 46.8003 43.232Z" fill="white"/>
<path d="M36.3028 45.404C36.3028 46.9554 35.0617 48.1965 33.5103 48.1965C31.9589 48.1965 30.7178 46.9554 30.7178 45.404C30.7178 43.8526 31.9589 42.5598 33.5103 42.5598C35.0617 42.6115 36.3028 43.8526 36.3028 45.404Z" fill="#3B3E43"/>
<path d="M34.1307 43.232C34.1307 44.0594 33.4584 44.7317 32.631 44.7317C31.8036 44.7317 31.1313 44.0594 31.1313 43.232C31.1313 42.4046 31.8036 41.7324 32.631 41.7324C33.4584 41.7324 34.1307 42.4046 34.1307 43.232Z" fill="white"/>
<path d="M44.7837 57.8151C44.7837 59.5734 42.7669 61.6936 40.2847 61.6936C37.8025 61.6936 35.7856 59.5217 35.7856 57.8151C35.7856 56.0569 37.8025 54.6606 40.2847 54.6606C42.7669 54.7124 44.7837 56.1086 44.7837 57.8151Z" fill="#3B3E43"/>
<path d="M43.2325 56.8843C43.129 57.298 42.5085 57.5049 41.8362 57.3497C41.164 57.1946 40.7502 56.7292 40.8537 56.3155C40.9571 55.9018 41.5777 55.6949 42.2499 55.8501C42.8705 56.0052 43.3359 56.4706 43.2325 56.8843Z" fill="white"/>
</svg>
