<svg width="80" height="80" viewBox="0 0 80 80" fill="none" xmlns="http://www.w3.org/2000/svg">
<path d="M80 39.9741C80 62.0556 62.1073 79.9483 40.0259 79.9483C17.8927 80 0 62.0556 0 39.9741C0 17.8927 17.8927 0 39.9741 0C62.1073 0 80 17.8927 80 39.9741Z" fill="#5956FF"/>
<path d="M66.1926 38.7847C76.4318 57.7634 61.9004 63.8655 38.2676 63.8655C11.3768 63.8655 6.41239 56.2637 13.2385 38.5779C19.0821 23.3743 29.4764 21.5126 38.7847 21.5126C48.0931 21.5126 58.7976 25.1842 66.1926 38.7847Z" fill="#E0DCD3"/>
<path d="M64.2789 52.2818C61.8484 56.3154 55.3842 57.4014 47.8341 58.2288C43.8005 55.7983 43.0248 41.4738 44.0074 36.8714C45.0933 31.9586 49.9544 28.1836 56.4702 33.3032C60.0901 36.1991 66.7094 48.2482 64.2789 52.2818Z" fill="#BAB7B0"/>
<path d="M15.6688 52.9541C18.0993 56.9877 27.9248 58.1254 32.7858 58.6942C36.8194 56.2637 38.2674 42.4046 36.9746 36.1474C36.0437 31.5449 29.0625 26.5805 22.8052 33.4066C16.5479 40.2327 13.2383 48.9205 15.6688 52.9541Z" fill="#BAB7B0"/>
<path d="M48.248 40.8533C48.248 43.2321 50.1614 45.1454 52.5402 45.1454C54.919 45.1454 56.8324 43.2321 56.8324 40.8533C56.8324 38.4745 54.919 36.5611 52.5402 36.5611C50.2131 36.5611 48.248 38.4745 48.248 40.8533Z" fill="white"/>
<path d="M50.4199 40.905C50.4199 42.0944 51.4025 43.0769 52.5919 43.0769C53.7813 43.0769 54.7638 42.0944 54.7638 40.905C54.7638 39.7156 53.7813 38.733 52.5919 38.733C51.3508 38.733 50.4199 39.7156 50.4199 40.905Z" fill="#3B3E43"/>
<path d="M52.0747 39.1984C52.0747 39.819 52.5918 40.3361 53.2124 40.3361C53.833 40.3361 54.3501 39.819 54.3501 39.1984C54.3501 38.5779 53.833 38.0608 53.2124 38.0608C52.5918 38.0608 52.0747 38.5779 52.0747 39.1984Z" fill="white"/>
<path d="M31.6483 39.7673C31.6483 42.1461 29.7349 44.0595 27.3561 44.0595C24.9773 44.0595 23.064 42.1461 23.064 39.7673C23.064 37.3885 24.9773 35.4751 27.3561 35.4751C29.7349 35.4751 31.6483 37.3885 31.6483 39.7673Z" fill="white"/>
<path d="M29.528 39.819C29.528 41.0084 28.5454 41.9909 27.356 41.9909C26.1666 41.9909 25.1841 41.0084 25.1841 39.819C25.1841 38.6296 26.1666 37.647 27.356 37.647C28.5454 37.647 29.528 38.6296 29.528 39.819Z" fill="#3B3E43"/>
<path d="M27.8213 38.1125C27.8213 38.733 27.3041 39.2502 26.6836 39.2502C26.063 39.2502 25.5459 38.733 25.5459 38.1125C25.5459 37.4919 26.063 36.9748 26.6836 36.9748C27.3559 36.9748 27.8213 37.4919 27.8213 38.1125Z" fill="white"/>
<path d="M53.9369 53.6264C53.9369 58.022 45.6628 61.5902 38.5264 61.5902C31.39 61.5902 25.5981 58.022 25.5981 53.6264C25.5981 49.2308 31.39 45.6626 38.5264 45.6626C45.6628 45.6626 53.9369 49.2308 53.9369 53.6264Z" fill="white"/>
<path d="M45.1455 53.1092C45.1455 55.1777 42.715 57.7117 39.7673 57.7117C36.8197 57.7117 34.3892 55.126 34.3892 53.1092C34.3892 51.0407 36.768 49.3859 39.7673 49.3859C42.715 49.3859 45.1455 51.0407 45.1455 53.1092Z" fill="#3B3E43"/>
<path d="M43.2836 51.9715C43.1802 52.4887 42.4045 52.6955 41.6288 52.4887C40.8531 52.2818 40.336 51.713 40.4394 51.2476C40.5428 50.7304 41.3185 50.5236 42.0942 50.7304C42.8699 50.9373 43.3871 51.5061 43.2836 51.9715Z" fill="white"/>
<path d="M18.5648 16.393C14.6347 18.2547 18.72 30.7692 18.72 30.7692L31.9585 22.9606C31.9068 22.9606 22.4433 14.4796 18.5648 16.393Z" fill="#E0DCD3"/>
<path d="M20.1679 18.203C17.5305 19.4958 20.2713 27.8733 20.2713 27.8733L29.166 22.6503C29.1143 22.6503 22.7536 16.9619 20.1679 18.203Z" fill="#BAB7B0"/>
<path d="M61.3834 16.393C65.3136 18.2547 61.2283 30.7692 61.2283 30.7692L47.9897 22.9606C47.9897 22.9606 57.4532 14.4796 61.3834 16.393Z" fill="#E0DCD3"/>
<path d="M59.7803 18.203C62.4177 19.4958 59.6769 27.8733 59.6769 27.8733L50.7822 22.6503C50.7822 22.6503 57.1429 16.9619 59.7803 18.203Z" fill="#BAB7B0"/>
</svg>
