<svg width="250" height="234" viewBox="0 0 250 234" fill="none" xmlns="http://www.w3.org/2000/svg">
<g clip-path="url(#clip0)">
<path d="M190.502 55.4862H189.219V20.3411C189.219 14.9463 187.076 9.77248 183.262 5.95778C179.447 2.14308 174.273 0 168.878 0H94.4202C89.0254 0 83.8516 2.14308 80.0369 5.95778C76.2222 9.77248 74.0791 14.9463 74.0791 20.3411V213.149C74.0791 218.544 76.2222 223.718 80.0369 227.533C83.8516 231.347 89.0254 233.491 94.4202 233.491H168.88C174.274 233.491 179.448 231.347 183.263 227.533C187.078 223.718 189.221 218.544 189.221 213.149V80.503H190.502V55.4862Z" fill="#212121"/>
<path d="M185.074 18.98V214.512C185.073 218.602 183.448 222.524 180.556 225.417C177.665 228.309 173.742 229.935 169.652 229.937H93.6628C89.5708 229.937 85.6462 228.312 82.7523 225.419C79.8585 222.526 78.2323 218.602 78.2314 214.51V18.98C78.2327 14.8884 79.8591 10.9648 82.753 8.07213C85.6468 5.17952 89.5711 3.55477 93.6628 3.55522H102.88C102.428 4.66828 102.256 5.87548 102.379 7.0707C102.502 8.26591 102.917 9.41256 103.587 10.4099C104.257 11.4072 105.162 12.2246 106.222 12.7902C107.282 13.3559 108.465 13.6525 109.667 13.654H152.989C154.19 13.6524 155.373 13.3556 156.433 12.7898C157.493 12.2239 158.398 11.4064 159.068 10.4089C159.738 9.41146 160.153 8.26468 160.276 7.06939C160.399 5.87409 160.227 4.66687 159.774 3.55385H169.648C173.738 3.55458 177.66 5.17949 180.553 8.07137C183.445 10.9632 185.071 14.8854 185.072 18.9755L185.074 18.98Z" fill="#383838"/>
<path d="M176.977 219.73H86.3278C85.554 219.729 84.8121 219.421 84.265 218.874C83.7178 218.327 83.41 217.585 83.4092 216.811V26.2421C83.41 25.4683 83.7178 24.7265 84.265 24.1793C84.8121 23.6321 85.554 23.3244 86.3278 23.3235H176.977C177.751 23.3244 178.493 23.6321 179.04 24.1793C179.587 24.7265 179.895 25.4683 179.896 26.2421V216.811C179.895 217.585 179.587 218.327 179.04 218.874C178.493 219.421 177.751 219.729 176.977 219.73Z" fill="black"/>
<path d="M130.966 84.283C142.892 84.283 152.56 74.615 152.56 62.6889C152.56 50.7629 142.892 41.0949 130.966 41.0949C119.04 41.0949 109.372 50.7629 109.372 62.6889C109.372 74.615 119.04 84.283 130.966 84.283Z" fill="#212121"/>
<path d="M131.447 50.441C129.012 50.441 126.631 51.1631 124.607 52.5159C122.582 53.8688 121.004 55.7916 120.072 58.0413C119.14 60.291 118.896 62.7665 119.371 65.1547C119.846 67.543 121.019 69.7367 122.741 71.4586C124.463 73.1804 126.656 74.353 129.045 74.828C131.433 75.3031 133.908 75.0593 136.158 74.1274C138.408 73.1956 140.331 71.6175 141.683 69.5929C143.036 67.5682 143.758 65.1878 143.758 62.7528C143.758 59.4875 142.461 56.356 140.152 54.0471C137.843 51.7381 134.712 50.441 131.447 50.441ZM131.447 54.1346C132.177 54.1346 132.891 54.3512 133.499 54.7571C134.106 55.163 134.579 55.7398 134.859 56.4147C135.139 57.0897 135.212 57.8323 135.069 58.5488C134.927 59.2653 134.575 59.9234 134.058 60.44C133.542 60.9566 132.884 61.3083 132.167 61.4509C131.451 61.5934 130.708 61.5202 130.033 61.2407C129.358 60.9611 128.781 60.4877 128.375 59.8803C127.97 59.2729 127.753 58.5588 127.753 57.8282C127.753 57.3432 127.849 56.8629 128.034 56.4147C128.22 55.9666 128.492 55.5594 128.835 55.2164C129.178 54.8735 129.585 54.6014 130.033 54.4158C130.481 54.2301 130.962 54.1346 131.447 54.1346ZM131.447 71.9156C129.987 71.9089 128.552 71.5464 127.265 70.8594C125.977 70.1725 124.877 69.1818 124.059 67.9734C124.118 65.5111 128.984 64.1555 131.447 64.1555C133.909 64.1555 138.774 65.5111 138.834 67.9734C138.015 69.1811 136.915 70.1713 135.628 70.8583C134.341 71.5453 132.906 71.9086 131.447 71.9166V71.9156Z" fill="#71FA4F"/>
<path d="M151.921 96.0571H108.712V99.3046H151.921V96.0571Z" fill="#212121"/>
<path d="M157.309 104.496H102.931V107.744H157.309V104.496Z" fill="#212121"/>
<path d="M169.954 128.736H93.3506V205.34H169.954V128.736Z" fill="#212121"/>
<path d="M138.234 137.439H109.677V139.585H138.234V137.439Z" fill="black"/>
<path d="M153.775 143.74H109.677V145.887H153.775V143.74Z" fill="#71FA4F"/>
<path d="M146.074 149.741H110.135V151.888H146.074V149.741Z" fill="black"/>
<path d="M130.658 156.326H109.677V158.472H130.658V156.326Z" fill="black"/>
<path d="M141.342 162.757H109.677V164.904H141.342V162.757Z" fill="#71FA4F"/>
<path d="M138.234 169.229H109.677V171.375H138.234V169.229Z" fill="black"/>
<path d="M153.775 175.53H109.677V177.677H153.775V175.53Z" fill="#71FA4F"/>
<path d="M146.074 181.531H110.135V183.678H146.074V181.531Z" fill="black"/>
<path d="M130.658 188.116H109.677V190.262H130.658V188.116Z" fill="black"/>
<path d="M141.342 194.548H109.677V196.694H141.342V194.548Z" fill="black"/>
<path d="M237.874 166.542C237.67 166.9 237.397 167.213 237.072 167.465C236.746 167.717 236.374 167.903 235.977 168.011C235.58 168.119 235.165 168.148 234.757 168.096C234.348 168.044 233.954 167.912 233.597 167.708C233.239 167.503 232.926 167.231 232.674 166.905C232.422 166.58 232.236 166.208 232.128 165.81C232.02 165.413 231.991 164.998 232.043 164.59C232.095 164.182 232.227 163.788 232.431 163.43C232.438 163.418 232.445 163.406 232.452 163.394C232.54 163.247 232.639 163.107 232.748 162.975L230.111 144.179L230.032 143.616L229.496 139.78L229.417 139.227L229.709 139.241L234.818 139.475L236.188 139.536L236.36 143.035L237.332 162.707C237.839 163.193 238.169 163.835 238.267 164.531C238.366 165.226 238.227 165.935 237.874 166.542Z" fill="#FFB8B8"/>
<path d="M230.046 143.786L236.534 143.191C236.871 143.159 237.181 142.995 237.397 142.736C237.614 142.476 237.719 142.141 237.689 141.805L236.488 128.313C236.43 127.67 236.247 127.044 235.947 126.471C235.648 125.899 235.239 125.391 234.743 124.977C234.248 124.562 233.675 124.25 233.059 124.057C232.442 123.863 231.794 123.794 231.151 123.851C230.507 123.908 229.881 124.092 229.309 124.391C228.736 124.691 228.229 125.1 227.814 125.595C227.4 126.091 227.087 126.663 226.894 127.28C226.701 127.896 226.631 128.545 226.688 129.188C226.697 129.281 226.708 129.374 226.721 129.466L228.667 142.699C228.711 143.002 228.864 143.279 229.095 143.48C229.327 143.68 229.623 143.791 229.93 143.791C229.969 143.792 230.008 143.79 230.046 143.786Z" fill="#71FA4F"/>
<path d="M234.964 132.887C235.62 131.028 235.651 129.005 235.051 127.128C234.451 125.25 233.253 123.62 231.641 122.487C229.194 120.813 225.846 120.212 222.241 124.504C215.03 133.088 213.142 142.531 213.142 142.531L227.906 144.934C227.906 144.934 232.928 138.797 234.964 132.887Z" fill="#71FA4F"/>
<path d="M211.084 229.581H206.875L204.872 213.344H211.085L211.084 229.581Z" fill="#FFB8B8"/>
<path d="M198.757 233.49H211.987V228.378H203.869C202.513 228.378 201.213 228.916 200.254 229.875C199.295 230.834 198.757 232.134 198.757 233.49Z" fill="#212121"/>
<path d="M245.694 225.909L241.697 227.231L234.699 212.442L240.598 210.492L245.694 225.909Z" fill="#FFB8B8"/>
<path d="M235.215 233.489L247.777 229.337L246.173 224.484L238.465 227.032C237.827 227.242 237.238 227.577 236.729 228.015C236.221 228.454 235.804 228.988 235.502 229.588C235.201 230.187 235.02 230.841 234.971 231.51C234.922 232.179 235.005 232.852 235.215 233.489Z" fill="#212121"/>
<path d="M225.695 118.229C230.353 118.229 234.129 114.453 234.129 109.796C234.129 105.138 230.353 101.362 225.695 101.362C221.037 101.362 217.262 105.138 217.262 109.796C217.262 114.453 221.037 118.229 225.695 118.229Z" fill="#FFB8B8"/>
<path d="M218.312 225.061L222.221 199.259C222.263 198.983 222.399 198.731 222.606 198.545C222.813 198.359 223.079 198.25 223.357 198.238C223.635 198.226 223.909 198.311 224.131 198.478C224.354 198.646 224.512 198.885 224.577 199.156L230.531 223.745C230.624 224.122 230.856 224.45 231.179 224.665C231.502 224.88 231.894 224.966 232.278 224.907L248.699 222.268C248.917 222.233 249.125 222.152 249.308 222.03C249.492 221.908 249.648 221.748 249.765 221.561C249.882 221.374 249.957 221.164 249.986 220.946C250.015 220.727 249.997 220.505 249.933 220.294L228.52 149.697C228.459 149.497 228.452 149.284 228.499 149.079L229.212 145.989C229.29 145.654 229.254 145.303 229.109 144.99C228.964 144.678 228.719 144.424 228.413 144.267C225.497 142.78 218.112 139.687 212.539 143.075C212.358 143.185 212.201 143.331 212.079 143.504C211.956 143.676 211.869 143.872 211.825 144.08L195.097 222.701C195.052 222.914 195.052 223.135 195.098 223.349C195.145 223.563 195.236 223.764 195.365 223.94C195.495 224.116 195.661 224.262 195.851 224.369C196.042 224.476 196.253 224.542 196.471 224.561L216.646 226.368C216.692 226.372 216.738 226.374 216.783 226.374C217.153 226.374 217.51 226.241 217.79 226C218.07 225.759 218.255 225.426 218.311 225.061L218.312 225.061Z" fill="#212121"/>
<path d="M231.288 103.837C230.652 103.455 230.088 102.964 229.621 102.388C229.39 102.097 229.238 101.751 229.18 101.385C229.122 101.018 229.159 100.642 229.288 100.294C229.714 99.3535 230.98 99.0575 231.961 99.3765C232.943 99.6955 233.701 100.466 234.418 101.208C235.049 101.86 235.699 102.544 235.997 103.402C236.295 104.26 236.143 105.348 235.397 105.869C234.666 106.38 233.615 106.171 232.911 105.622C232.208 105.074 231.773 104.259 231.358 103.469L231.288 103.837Z" fill="#212121"/>
<path d="M234.145 101.434C234.191 99.0582 236.9 97.3541 239.239 97.7754C241.578 98.1967 243.376 100.191 244.276 102.391C246.178 107.038 244.75 112.341 242.918 117.018C241.086 121.695 238.818 126.44 239.086 131.454C239.267 134.165 240.176 136.776 241.718 139.012C243.261 141.248 245.378 143.026 247.847 144.159C245.207 145.356 242.052 144.119 239.833 142.254C234.906 138.111 233.005 130.735 235.314 124.727C236.453 121.763 238.46 119.228 240.027 116.467C241.595 113.706 242.745 110.452 241.935 107.382C241.126 104.312 237.683 101.826 234.739 103.014L234.145 101.434Z" fill="#212121"/>
<path d="M225.19 113.538C225.925 112.296 226.666 110.665 225.323 109.579C225.031 109.353 224.696 109.189 224.34 109.094C223.983 109 223.611 108.978 223.246 109.029C221.731 109.212 220.081 109.287 218.614 108.737C218.064 108.547 217.558 108.25 217.125 107.861C216.693 107.472 216.342 107 216.096 106.474C215.34 104.68 216.287 102.5 217.869 101.366C218.837 100.698 219.981 100.33 221.158 100.309C222.334 100.289 223.49 100.616 224.482 101.249C226.532 100.344 229.019 100.747 230.881 101.993C232.743 103.239 234.018 105.235 234.71 107.367C235.348 109.201 235.457 111.178 235.027 113.072C234.68 114.389 234.022 115.604 233.106 116.613C232.191 117.622 231.046 118.395 229.768 118.867C229.27 119.064 228.73 119.126 228.2 119.048C227.671 118.969 227.172 118.753 226.752 118.421C226.752 118.421 225.59 117.406 225.226 116.184C224.947 115.245 224.797 114.202 225.19 113.538Z" fill="#212121"/>
<path d="M200.171 121.063C200.214 121.249 200.241 121.437 200.254 121.626L215.004 130.136L218.589 128.072L222.411 133.075L216.419 137.346C215.935 137.691 215.352 137.87 214.757 137.856C214.163 137.841 213.589 137.634 213.123 137.266L197.911 125.266C197.225 125.521 196.477 125.56 195.768 125.379C195.058 125.198 194.421 124.805 193.94 124.253C193.459 123.701 193.158 123.015 193.076 122.287C192.995 121.56 193.136 120.824 193.483 120.179C193.83 119.534 194.364 119.01 195.016 118.676C195.668 118.343 196.406 118.215 197.132 118.311C197.857 118.407 198.537 118.722 199.08 119.214C199.622 119.705 200.002 120.35 200.169 121.063H200.171Z" fill="#FFB8B8"/>
<path d="M215.497 130.539L220.264 136.717C220.4 136.893 220.572 137.037 220.768 137.141C220.964 137.244 221.181 137.303 221.402 137.316C221.624 137.328 221.845 137.292 222.052 137.211C222.258 137.13 222.445 137.005 222.599 136.846L227.996 131.241C228.909 130.562 229.515 129.547 229.68 128.421C229.845 127.295 229.556 126.149 228.876 125.236C228.197 124.323 227.182 123.717 226.056 123.552C224.93 123.386 223.784 123.675 222.871 124.355C222.824 124.39 222.778 124.425 222.733 124.462L215.964 128.247C215.771 128.355 215.603 128.504 215.471 128.683C215.34 128.862 215.25 129.068 215.205 129.285C215.161 129.503 215.164 129.728 215.214 129.944C215.264 130.16 215.36 130.363 215.496 130.539L215.497 130.539Z" fill="#71FA4F"/>
<path d="M76.2252 145.264C76.0567 145.341 75.8947 145.432 75.7407 145.534L60.3399 138.961L59.7906 134.904L53.6367 134.867L54.0003 144.172L74.3277 149.548C74.3706 149.69 74.4219 149.828 74.4816 149.963C74.7755 150.59 75.2481 151.117 75.8402 151.476C76.4322 151.835 77.1173 152.012 77.8093 151.983C78.5012 151.954 79.1693 151.722 79.7296 151.315C80.2899 150.908 80.7174 150.344 80.9585 149.695C81.1995 149.046 81.2433 148.34 81.0844 147.665C80.9255 146.991 80.5709 146.379 80.0652 145.906C79.5596 145.433 78.9253 145.119 78.2422 145.005C77.559 144.891 76.8574 144.982 76.2255 145.265L76.2252 145.264Z" fill="#A0616A"/>
<path d="M51.3982 229.581H55.6078L57.6104 213.344H51.3975L51.3982 229.581Z" fill="#A0616A"/>
<path d="M58.6147 228.378H50.4961V233.488H63.7264C63.7264 232.133 63.1879 230.833 62.2292 229.874C61.2706 228.915 59.9704 228.377 58.6147 228.377H58.6147L58.6147 228.378Z" fill="#212121"/>
<path d="M35.0264 228.392L39.2155 228.804L42.8006 212.841L36.6175 212.234L35.0264 228.392Z" fill="#A0616A"/>
<path d="M42.3289 227.903L34.2509 227.107L33.75 232.194L46.9138 233.49C46.9796 232.822 46.9132 232.148 46.7184 231.506C46.5235 230.863 46.2041 230.266 45.7783 229.747C45.3526 229.228 44.8288 228.798 44.2369 228.482C43.645 228.166 42.9965 227.969 42.3286 227.903L42.3289 227.903Z" fill="#212121"/>
<path d="M50.2264 117.682C54.8841 117.682 58.6599 113.907 58.6599 109.249C58.6599 104.591 54.8841 100.816 50.2264 100.816C45.5688 100.816 41.793 104.591 41.793 109.249C41.793 113.907 45.5688 117.682 50.2264 117.682Z" fill="#A0616A"/>
<path d="M56.5497 226.298C56.9116 226.299 57.2622 226.172 57.5396 225.939C57.8169 225.707 58.0033 225.384 58.0657 225.027C60.243 212.934 67.3668 173.385 67.5371 172.288C67.541 172.263 67.5428 172.238 67.5426 172.212V169.263C67.5429 169.156 67.5094 169.051 67.4468 168.964L66.506 167.646C66.4613 167.583 66.4026 167.53 66.3345 167.493C66.2664 167.456 66.1907 167.435 66.1132 167.431C60.7491 167.18 43.1817 166.443 42.3329 167.503C41.4807 168.568 41.7835 171.798 41.8522 172.434L41.8487 172.5L33.9564 222.975C33.8946 223.378 33.9938 223.789 34.2325 224.119C34.4713 224.449 34.8303 224.671 35.232 224.738L40.1614 225.551C40.5286 225.609 40.9046 225.535 41.2213 225.34C41.5379 225.145 41.7741 224.843 41.8869 224.488C43.4114 219.617 48.5238 203.228 50.2956 196.886C50.3069 196.846 50.3323 196.812 50.3671 196.789C50.4019 196.767 50.4437 196.757 50.4848 196.763C50.5259 196.769 50.5635 196.789 50.5907 196.821C50.6178 196.852 50.6327 196.892 50.6324 196.934C50.5439 202.979 50.3299 218.402 50.2547 223.729L50.2468 224.303C50.2436 224.692 50.3861 225.067 50.6464 225.355C50.9066 225.644 51.2655 225.824 51.6523 225.861L56.4055 226.291C56.4534 226.296 56.5016 226.298 56.5497 226.298Z" fill="#212121"/>
<path d="M55.5794 120.999C57.0511 121.874 57.9318 123.481 58.4373 125.119C59.3729 128.148 59.936 131.28 60.1143 134.445L60.6486 143.922L67.2601 169.046C61.5296 173.895 58.2244 172.792 50.5103 168.826C42.7962 164.861 41.9151 170.149 41.9151 170.149L40.3727 148.771L38.1689 125.411C38.6637 124.816 39.2237 124.277 39.8384 123.806C41.8753 122.222 44.2453 121.121 46.7697 120.586C49.2941 120.05 51.907 120.095 54.4116 120.716L55.5794 120.999Z" fill="#E6E6E6"/>
<path d="M57.7265 150.338C57.5488 150.405 57.3766 150.485 57.2115 150.579L41.9831 142.956L41.7304 138.826L35.4488 138.393L35.1123 147.806L55.4624 154.536C55.6284 155.249 56.0076 155.895 56.5496 156.387C57.0915 156.88 57.7706 157.195 58.4963 157.292C59.2221 157.389 59.9601 157.263 60.6123 156.93C61.2645 156.597 61.7999 156.074 62.1473 155.429C62.4947 154.785 62.6376 154.05 62.5571 153.322C62.4765 152.594 62.1763 151.908 61.6963 151.355C61.2163 150.802 60.5793 150.409 59.8701 150.227C59.1609 150.045 58.4131 150.083 57.7262 150.336L57.7265 150.338Z" fill="#A0616A"/>
<path d="M38.2779 125.516C34.5314 126.839 33.8711 141.165 33.8711 141.165C38.2789 138.741 43.5681 142.708 43.5681 142.708C43.5681 142.708 44.67 138.961 45.9923 134.113C46.3916 132.749 46.4394 131.306 46.1311 129.919C45.8229 128.532 45.1687 127.245 44.2295 126.179C44.2295 126.179 42.0247 124.193 38.2779 125.516Z" fill="#E6E6E6"/>
<path d="M42.667 111.48C43.7177 110.639 45.1512 112.166 45.1512 112.166L45.9918 104.602C45.9918 104.602 51.2453 105.231 54.6083 104.391C57.9712 103.552 58.4962 107.439 58.4962 107.439C58.6696 105.869 58.7047 104.286 58.6013 102.71C58.3912 100.819 55.6593 98.9274 50.8257 97.6665C45.9922 96.4057 43.4705 101.87 43.4705 101.87C40.1062 103.55 41.6149 112.32 42.667 111.48Z" fill="#212121"/>
</g>
<defs>
<clipPath id="clip0">
<rect width="250" height="233.491" fill="white"/>
</clipPath>
</defs>
</svg>
