<?xml version="1.0" encoding="UTF-8"?>
<svg width="300px" height="258px" viewBox="0 0 300 258" version="1.1" xmlns="http://www.w3.org/2000/svg" xmlns:xlink="http://www.w3.org/1999/xlink">
    <title>phone_maintenance</title>
    <defs>
        <linearGradient x1="65.6237338%" y1="31.7539%" x2="29.5702224%" y2="81.6658919%" id="linearGradient-1">
            <stop stop-color="#FFFFFF" offset="0%"></stop>
            <stop stop-color="#CBCBCB" offset="100%"></stop>
        </linearGradient>
        <linearGradient x1="-20.7603687%" y1="56.3288567%" x2="-20.2056452%" y2="68.2956741%" id="linearGradient-2">
            <stop stop-color="#FFFFFF" offset="0%"></stop>
            <stop stop-color="#CBCBCB" offset="100%"></stop>
        </linearGradient>
        <linearGradient x1="83.3571049%" y1="180.221649%" x2="-87.799713%" y2="272.46134%" id="linearGradient-3">
            <stop stop-color="#FFFFFF" offset="0%"></stop>
            <stop stop-color="#CBCBCB" offset="100%"></stop>
        </linearGradient>
        <linearGradient x1="60.4919615%" y1="87.560572%" x2="34.190911%" y2="51.3798201%" id="linearGradient-4">
            <stop stop-color="#000000" offset="1%"></stop>
            <stop stop-color="#000000" stop-opacity="0.69" offset="13%"></stop>
            <stop stop-color="#000000" stop-opacity="0.32" offset="25%"></stop>
            <stop stop-color="#000000" stop-opacity="0" offset="100%"></stop>
        </linearGradient>
    </defs>
    <g id="Student-" stroke="none" stroke-width="1" fill="none" fill-rule="evenodd">
        <g id="36)-Setting" transform="translate(-38.000000, -128.000000)">
            <g id="phone_maintenance" transform="translate(38.000000, 128.500000)">
                <path d="M192.45,0.860526316 C256.397368,-7.2 278.328947,43.5631579 281.984211,61.4052632 C290.494737,103.026316 279.007895,118.689474 278.194737,134.565789 C277.326316,151.65 299.510526,163.057895 299.510526,180.181579 C299.406554,198.647085 292.1083,216.344716 279.165789,229.515789 C260.968421,247.863158 234.047368,254.778947 208.247368,256.128947 C182.447368,257.478947 156.560526,254.107895 130.752632,255.497368 C106.318421,256.807895 -19.0026316,232.673684 2.46315789,119.210526 C8.31315789,88.2473684 58.3736842,80.1157895 84.6631579,59.3526316 C105.765789,42.6315789 124.957895,9.37894737 192.45,0.860526316 Z" id="Path" fill="#68E1FD" fill-rule="nonzero" opacity="0.18"></path>
                <ellipse id="Oval" fill="#68E1FD" fill-rule="nonzero" opacity="0.35" transform="translate(156.571510, 214.932708) rotate(-87.790000) translate(-156.571510, -214.932708) " cx="156.57151" cy="214.932708" rx="30.3157895" ry="113.802632"></ellipse>
                <path d="M137.889474,30.7421053 L137.889474,197.052632 C137.889474,204.236842 144.110526,210.678947 151.776316,211.428947 L225.986842,218.731579 C233.644737,219.481579 239.865789,214.271053 239.865789,207.078947 L239.865789,40.7684211 C239.865789,33.5763158 233.644737,27.1342105 225.986842,26.3842105 L151.776316,19.0815789 C144.110526,18.3315789 137.889474,23.55 137.889474,30.7421053 Z M144.994737,31.5315789 C144.994737,27.1026316 148.823684,23.8815789 153.552632,24.3473684 L164.005263,25.3815789 L164.005263,26.3605263 C164.159436,29.3546597 166.497405,31.7768499 169.484211,32.0368421 L209.352632,35.9842105 C212.376316,36.2763158 214.823684,34.2236842 214.823684,31.3894737 L214.823684,30.4105263 L225.623684,31.4684211 C230.360526,31.9342105 234.181579,35.9052632 234.181579,40.3342105 L234.181579,206.178947 C234.181579,210.607895 230.352632,213.821053 225.623684,213.355263 L153.552632,206.25 C148.815789,205.784211 144.994737,201.821053 144.994737,197.384211 L144.994737,31.5315789 Z" id="Shape" fill="#E6E6E6" fill-rule="nonzero"></path>
                <path d="M134.4,33.8131579 L134.4,200.123684 C134.4,207.307895 140.621053,213.75 148.286842,214.5 L222.497368,221.802632 C230.155263,222.552632 236.376316,217.342105 236.376316,210.15 L236.376316,43.8394737 C236.376316,36.6473684 230.155263,30.2052632 222.497368,29.4552632 L148.286842,22.1605263 C140.621053,21.4026316 134.4,26.6210526 134.4,33.8131579 Z M141.505263,34.6026316 C141.505263,30.1736842 145.334211,26.9526316 150.063158,27.4184211 L160.515789,28.4526316 L160.515789,29.4315789 C160.669962,32.4257124 163.007931,34.8479025 165.994737,35.1078947 L205.863158,39.0552632 C208.886842,39.3473684 211.334211,37.2947368 211.334211,34.4605263 L211.334211,33.4815789 L222.126316,34.5394737 C226.863158,35.0052632 230.684211,38.9763158 230.684211,43.4052632 L230.684211,209.25 C230.684211,213.678947 226.855263,216.892105 222.126316,216.426316 L150.055263,209.321053 C145.318421,208.855263 141.497368,204.892105 141.497368,200.455263 L141.505263,34.6026316 Z" id="Shape" fill="#FFFFFF" fill-rule="nonzero"></path>
                <path d="M141.481579,34.6342105 L141.481579,200.471053 C141.481579,204.907895 145.310526,208.871053 150.039474,209.336842 L222.110526,216.442105 C226.847368,216.907895 230.668421,213.694737 230.668421,209.265789 L230.668421,43.4210526 C230.668421,38.9921053 226.839474,35.0210526 222.110526,34.5552632 L211.310526,33.4815789 L211.310526,34.4684211 C211.310526,37.3026316 208.863158,39.3552632 205.839474,39.0631579 L165.971053,35.1157895 C162.984247,34.8557973 160.646278,32.4336071 160.492105,29.4394737 L160.492105,28.4842105 L150.039474,27.45 C145.310526,26.9842105 141.481579,30.2052632 141.481579,34.6342105 Z" id="Path" stroke="url(#linearGradient-1)" stroke-width="0.512"></path>
                <path d="M141.481579,34.6342105 L141.481579,200.471053 C141.481579,204.907895 145.310526,208.871053 150.039474,209.336842 L222.110526,216.442105 C226.847368,216.907895 230.668421,213.694737 230.668421,209.265789 L230.668421,43.4210526 C230.668421,38.9921053 226.839474,35.0210526 222.110526,34.5552632 L211.310526,33.4815789 L211.310526,34.4684211 C211.310526,37.3026316 208.863158,39.3552632 205.839474,39.0631579 L165.971053,35.1157895 C162.984247,34.8557973 160.646278,32.4336071 160.492105,29.4394737 L160.492105,28.4842105 L150.039474,27.45 C145.310526,26.9842105 141.481579,30.2052632 141.481579,34.6342105 Z" id="Path" fill="#FFFFFF" fill-rule="nonzero"></path>
                <path d="M230.668421,43.4210526 L230.668421,209.25 C230.668421,213.678947 226.839474,216.892105 222.110526,216.434211 L150.268421,209.328947 L150.268421,209.328947 L150.039474,209.328947 C145.302632,208.863158 141.481579,204.9 141.481579,200.463158 L141.481579,34.6342105 C141.481579,30.2052632 145.310526,26.9842105 150.039474,27.4578947 L160.5,28.4763158 L160.5,29.4631579 C160.646949,32.457468 162.984182,34.8823892 165.971053,35.1394737 L166.760526,35.2184211 L205.831579,39.0631579 C208.855263,39.3552632 211.310526,37.3026316 211.310526,34.4684211 L211.310526,33.4736842 L222.126316,34.5473684 C222.989624,34.6291779 223.837281,34.8311276 224.644737,35.1473684 C228.150082,36.4213445 230.532642,39.6938519 230.668421,43.4210526 Z" id="Path" fill="#68E1FD" fill-rule="nonzero" opacity="0.18"></path>
                <path d="M230.668421,43.4210526 L230.668421,209.25 C230.668421,213.678947 226.839474,216.892105 222.110526,216.434211 L150.268421,209.328947 L150.268421,209.328947 C146.794737,207.963158 144.268421,204.678947 144.268421,201.071053 L144.268421,35.2657895 C144.268421,30.8289474 148.097368,27.6157895 152.818421,28.0815789 L160.5,28.8710526 L163.278947,29.1394737 L163.278947,30.1342105 C163.361283,32.3663973 164.714228,34.3543991 166.760526,35.25 C167.387209,35.546605 168.060123,35.7335254 168.75,35.8026316 L208.618421,39.75 C211.642105,40.0421053 214.097368,37.9815789 214.097368,35.1552632 L214.097368,34.1052632 L224.628947,35.1473684 C228.1405,36.4162167 230.530129,39.6898529 230.668421,43.4210526 Z" id="Path" fill="#68E1FD" fill-rule="nonzero" opacity="0.18"></path>
                <polygon id="Path" fill="url(#linearGradient-2)" fill-rule="nonzero" points="180.465789 32.9526316 194.171053 34.3026316 194.171053 33.1657895 180.465789 31.8157895"></polygon>
                <ellipse id="Oval" fill="url(#linearGradient-3)" fill-rule="nonzero" transform="translate(176.858804, 31.877598) rotate(-59.690000) translate(-176.858804, -31.877598) " cx="176.858804" cy="31.8775979" rx="1.35789474" ry="1.53157895"></ellipse>
                <g id="Q83r0t" opacity="0.19" transform="translate(103.421053, 137.368421)" fill="#DAB300" fill-rule="nonzero">
                    <path d="M48.0552632,62.7236842 C46.9389739,62.6434379 45.8961316,62.1375605 45.1421053,61.3105263 C44.5736842,60.6947368 44.0289474,60.0473684 43.4447368,59.4473684 C42.4487894,58.2002534 40.7669379,57.7297165 39.2684211,58.2789474 C37.7368421,58.8394737 38.7868421,58.1526316 38.7473684,59.8578947 C38.7473684,60.7342105 38.7473684,61.6105263 38.7473684,62.4868421 C38.7627124,63.5503145 38.3209614,64.5692423 37.534247,65.2849862 C36.7475326,66.0007302 35.6915014,66.3444681 34.6342105,66.2289474 C33.0552632,66.1184211 31.4605263,65.9921053 29.85,65.85 C27.4943306,65.6413332 25.6884328,63.6675247 25.6894737,61.3026316 C25.6894737,60.4263158 25.6894737,59.55 25.6894737,58.6736842 C25.6793353,57.0707777 24.735424,55.6209792 23.2736842,54.9631579 C21.9752324,54.2028763 20.3305072,54.3927761 19.2394737,55.4289474 C18.6552632,55.9421053 18.1184211,56.5026316 17.5421053,57.0078947 C15.8131579,58.5868421 13.3184211,58.3421053 11.6210526,56.4947368 C10.4447368,55.2157895 9.25263158,53.9289474 8.11578947,52.6263158 C6.40263158,50.7 6.41052632,48.2289474 8.11578947,46.5710526 C8.66052632,46.05 9.22894737,45.5605263 9.75789474,44.9921053 C10.8717098,43.9482789 11.2041621,42.3145133 10.5868421,40.9184211 C10.0969618,39.4022892 8.76062269,38.3165137 7.17631579,38.1473684 C6.32368421,38.0368421 5.47105263,38.0210526 4.61842105,37.9184211 C2.16000262,37.7208519 0.309105887,35.5965272 0.45,33.1342105 C0.45,31.5552632 0.45,30.0236842 0.45,28.4684211 C0.383443982,27.4315033 0.754709038,26.4141853 1.47350401,25.6638774 C2.19229898,24.9135695 3.19276096,24.4990221 4.23157895,24.5210526 C5.10789474,24.5210526 5.99210526,24.6157895 6.86842105,24.6868421 C8.45826507,24.927012 9.99922488,24.0215335 10.5631579,22.5157895 C11.2184211,21.0157895 10.8552632,19.4763158 9.56842105,18.0394737 C9.04736842,17.4552632 8.51052632,16.8868421 7.98947368,16.2947368 C6.42637803,14.6763229 6.42637803,12.1105192 7.98947368,10.4921053 C9.23684211,9.26842105 10.5078947,8.07631579 11.8184211,6.93947368 C13.5438961,5.54293381 16.0691247,5.78142762 17.5026316,7.47631579 C18.0947368,8.10789474 18.6552632,8.77894737 19.2631579,9.40263158 C20.2485547,10.5777977 21.8627583,11.012876 23.3052632,10.4921053 C24.7606121,10.0399402 25.7316012,8.66760889 25.6736842,7.14473684 C25.6736842,6.35526316 25.6736842,5.50263158 25.6736842,4.68947368 C25.7368421,2.06052632 27.4657895,0.465789474 30.0315789,0.655263158 L34.4842105,1.01052632 C36.9100002,1.17337855 38.7890451,3.197764 38.7710526,5.62894737 C38.7710526,6.41842105 38.7710526,7.20789474 38.7710526,7.99736842 C38.7020529,9.65795484 39.6354341,11.1980339 41.1394737,11.9052632 C42.5142901,12.7044066 44.2558615,12.4704642 45.3710526,11.3368421 C45.9,10.8394737 46.4131579,10.3342105 46.95,9.84473684 C47.7823597,9.11210644 48.8761183,8.74811781 49.9814984,8.83589363 C51.0868786,8.92366944 52.1094852,9.45571398 52.8157895,10.3105263 C54.0394737,11.6210526 55.2473684,12.9552632 56.4394737,14.2973684 C57.2257729,15.0835575 57.6675205,16.1499249 57.6675205,17.2618421 C57.6675205,18.3737593 57.2257729,19.4401267 56.4394737,20.2263158 C55.8631579,20.7868421 55.2473684,21.3078947 54.6789474,21.8763158 C53.6391661,22.8657014 53.3076041,24.38901 53.8421053,25.7210526 C54.2411482,27.2147095 55.4754385,28.3379136 57,28.5947368 C57.9,28.7684211 58.8157895,28.7842105 59.7236842,28.8710526 C62.0132222,28.9735797 63.7942271,30.8988952 63.7184211,33.1894737 C63.7710526,34.9736842 63.7710526,36.7552632 63.7184211,38.5342105 C63.6394737,41.0684211 61.6026316,44.25 59.1236842,44.0605263 C58.3342105,44.0052632 54,43.2710526 53.4157895,44.7710526 C52.8315789,46.2710526 53.5973684,47.1947368 54.6947368,48.4578947 C55.2631579,49.1131579 55.8789474,49.7368421 56.4473684,50.3921053 C58.0770175,52.0355515 58.0770175,54.6855011 56.4473684,56.3289474 C55.2631579,57.4894737 54.0789474,58.6184211 52.8315789,59.7552632 C52.0026316,60.6157895 50.0763158,62.6921053 48.0552632,62.7236842 Z M15.0631579,32.0763158 C15.0631579,41.8736842 22.6894737,50.3763158 32.2026316,51.1421053 C39.9394737,51.2052632 46.6578947,45.8605263 46.6502132,36.1421053 C46.6957742,26.6323792 39.3664048,18.7129334 29.8815789,18.0236842 C20.3526316,17.2263158 15.0789474,22.2947368 15.0631579,32.0763158 Z" id="Shape"></path>
                </g>
                <g id="Q83r0t-2" transform="translate(101.052632, 138.947368)" fill="#FFD200" fill-rule="nonzero">
                    <path d="M50.0763158,60.6157895 C48.9598869,60.5424321 47.9155048,60.038638 47.1631579,59.2105263 C46.5947368,58.5947368 46.05,57.9473684 45.4657895,57.3394737 C44.466412,56.0973452 42.7864202,55.6305044 41.2894737,56.1789474 C39.8118215,56.6672883 38.8424488,58.0825724 38.9210526,59.6368421 C38.9210526,60.5131579 38.9210526,61.3894737 38.9210526,62.2657895 C38.9363966,63.3292619 38.4946456,64.3481896 37.7079312,65.0639336 C36.9212169,65.7796776 35.8651856,66.1234155 34.8078947,66.0078947 C33.2289474,65.8973684 31.6342105,65.7710526 30.0236842,65.6289474 C27.6680148,65.4202805 25.862117,63.446472 25.8631579,61.0815789 C25.8631579,60.1973684 25.8631579,59.3289474 25.8631579,58.4526316 C25.8530195,56.849725 24.9091082,55.3999266 23.4473684,54.7421053 C22.1494936,53.9790876 20.5030062,54.1691909 19.4131579,55.2078947 C18.8289474,55.7210526 18.2921053,56.2815789 17.7157895,56.7868421 C15.9868421,58.3657895 13.4921053,58.1210526 11.7947368,56.2736842 C10.6184211,54.9868421 9.42631579,53.7078947 8.28947368,52.4052632 C6.57631579,50.4789474 6.58421053,48.0078947 8.28947368,46.35 C8.83421053,45.8289474 9.40263158,45.3394737 9.93157895,44.7710526 C11.049782,43.7296811 11.3828447,42.0929158 10.7605263,40.6973684 C10.270646,39.1812366 8.9343069,38.095461 7.35,37.9263158 C6.49736842,37.8157895 5.64473684,37.8 4.8,37.6973684 C2.3384293,37.503848 0.482968717,35.378311 0.623684211,32.9131579 C0.623684211,31.3342105 0.623684211,29.8026316 0.623684211,28.2473684 C0.557128192,27.2104507 0.928393249,26.1931326 1.64718822,25.4428247 C2.36598319,24.6925168 3.36644517,24.2779695 4.40526316,24.3 C5.28157895,24.3 6.16578947,24.3947368 7.04210526,24.4657895 C8.63194928,24.7059594 10.1729091,23.8004809 10.7368421,22.2947368 C11.3921053,20.7947368 11.0289474,19.2552632 9.74210526,17.8184211 C9.22105263,17.2342105 8.68421053,16.6657895 8.16315789,16.0736842 C6.60317384,14.4509552 6.60317384,11.8858869 8.16315789,10.2631579 C9.41052632,9.04736842 10.6815789,7.85526316 11.9921053,6.71052632 C13.7209384,5.32021968 16.2429994,5.56191719 17.6763158,7.25526316 C18.2684211,7.88684211 18.8289474,8.55789474 19.4368421,9.18157895 C20.4222389,10.3567451 22.0364425,10.7918234 23.4789474,10.2710526 C24.9342963,9.8188876 25.9052854,8.44655626 25.8473684,6.92368421 C25.8473684,6.13421053 25.8473684,5.28157895 25.8473684,4.46842105 C25.9105263,1.83947368 27.6394737,0.236842105 30.2052632,0.434210526 C31.6894737,0.552631579 33.1736842,0.663157895 34.6578947,0.789473684 C37.0836844,0.952325917 38.9627293,2.97671137 38.9447368,5.40789474 C38.9447368,6.19736842 38.9447368,6.98684211 38.9447368,7.77631579 C38.8757371,9.43690221 39.8091183,10.9769813 41.3131579,11.6842105 C42.6879743,12.483354 44.4295457,12.2494116 45.5447368,11.1157895 C46.0736842,10.6184211 46.5868421,10.1131579 47.1236842,9.62368421 C47.9560439,8.8910538 49.0498025,8.52706518 50.1551826,8.614841 C51.2605628,8.70261681 52.2831694,9.23466135 52.9894737,10.0894737 C54.2131579,11.4 55.4210526,12.7342105 56.6131579,14.0368421 C57.3994572,14.8230312 57.8412047,15.8893986 57.8412047,17.0013158 C57.8412047,18.113233 57.3994572,19.1796004 56.6131579,19.9657895 C56.0368421,20.5263158 55.4289474,21.0473684 54.8526316,21.6157895 C53.8128503,22.6051751 53.4812883,24.1284837 54.0157895,25.4605263 C54.4148324,26.9541832 55.6491227,28.0773873 57.1736842,28.3342105 C58.0736842,28.5078947 58.9894737,28.5157895 59.8973684,28.6105263 C62.1869065,28.7130534 63.9679113,30.6383689 63.8921053,32.9289474 C63.95,34.7131579 63.95,36.4947368 63.8921053,38.2736842 C63.8131579,40.8078947 62.25,42.2210526 59.7710526,42.0236842 C58.9815789,41.9684211 58.1921053,41.8736842 57.4026316,41.85 C55.9167642,41.7520615 54.554143,42.675652 54.0947368,44.0921053 C53.5048055,45.5020733 53.8157249,47.1281816 54.8842105,48.2210526 C55.4526316,48.8763158 56.0684211,49.5 56.6368421,50.1473684 C58.2674136,51.7935124 58.2674136,54.4459613 56.6368421,56.0921053 C55.4526316,57.2526316 54.2684211,58.3815789 53.0210526,59.5184211 C52.2504767,60.3023377 51.1719839,60.7042426 50.0763158,60.6157895 Z M15.2368421,31.8394737 C15.2368421,41.6289474 22.8710526,50.1394737 32.3763158,50.9052632 C41.8815789,51.6710526 49.5868421,44.3368421 49.5868421,34.5947368 C49.5868421,24.8526316 41.8894737,16.35 32.4631579,15.5842105 C23.0368421,14.8184211 15.2842105,22.0578947 15.2368421,31.8394737 L15.2368421,31.8394737 Z" id="Shape"></path>
                </g>
                <g id="Q83r0t-3" opacity="0.19" transform="translate(157.894737, 133.421053)" fill="#DAB300" fill-rule="nonzero">
                    <path d="M24.8289474,32.0289474 C24.259637,31.9914935 23.7272874,31.7338137 23.3447368,31.3105263 C23.0526316,30.9947368 22.7763158,30.6631579 22.4842105,30.3552632 C21.9718521,29.7247505 21.116779,29.4872302 20.3526316,29.7631579 C19.5631579,30.0473684 20.1078947,29.7 20.0842105,30.5526316 C20.0842105,31.0026316 20.0842105,31.4526316 20.0842105,31.8947368 C20.0893875,32.4368508 19.8630544,32.9554278 19.4620408,33.3202597 C19.0610272,33.6850917 18.5234218,33.8615263 17.9842105,33.8052632 L15.5447368,33.6078947 C14.3510218,33.4840106 13.438644,32.4868394 13.4210526,31.2868421 C13.4210526,30.8447368 13.4210526,30.3947368 13.4210526,29.9447368 C13.4132063,29.1295561 12.9325548,28.3931733 12.1894737,28.0578947 C11.5268534,27.6676298 10.685741,27.7643094 10.1289474,28.2947368 C9.83684211,28.5552632 9.56052632,28.8394737 9.26842105,29.0842105 C8.83817311,29.4627832 8.27189753,29.6490737 7.70092439,29.5998775 C7.12995125,29.5506814 6.60388733,29.270273 6.24473684,28.8236842 C5.64473684,28.1684211 5.04473684,27.5131579 4.45263158,26.85 C4.03440284,26.4454347 3.79826101,25.8884624 3.79826101,25.3065789 C3.79826101,24.7246955 4.03440284,24.1677232 4.45263158,23.7631579 L5.28947368,22.9736842 C5.85555837,22.4405704 6.0233138,21.6081236 5.70789474,20.8973684 C5.46204716,20.1211229 4.78060968,19.5635831 3.97105263,19.4763158 C3.53684211,19.4210526 3.10263158,19.4131579 2.66842105,19.3657895 C1.42276825,19.2415231 0.488931175,18.1693398 0.536842105,16.9184211 L0.536842105,14.55 C0.505836444,14.0216906 0.697195574,13.5044903 1.06460043,13.1235889 C1.43200528,12.7426875 1.94196876,12.5328024 2.47105263,12.5447368 C2.91315789,12.5447368 3.36315789,12.5921053 3.81315789,12.6315789 C4.62420532,12.7550132 5.41101669,12.2941195 5.7,11.5263158 C6.02607675,10.7335761 5.82094296,9.82151966 5.18684211,9.24473684 C4.92631579,8.94473684 4.65,8.65263158 4.39736842,8.35263158 C3.60028955,7.52674094 3.60028955,6.21799591 4.39736842,5.39210526 C5.02894737,4.76842105 5.68421053,4.16052632 6.34736842,3.57631579 C7.22947873,2.87145751 8.51175745,2.99374567 9.24473684,3.85263158 C9.55263158,4.17631579 9.83684211,4.51578947 10.1447368,4.83157895 C10.6444319,5.43458972 11.4689581,5.6588861 12.2052632,5.39210526 C12.9512353,5.16640731 13.4508566,4.46563969 13.4210526,3.68684211 C13.4210526,3.26842105 13.4210526,2.85 13.4210526,2.43157895 C13.3814819,1.84592661 13.6089139,1.27379782 14.0397638,0.875146592 C14.4706138,0.476495366 15.058651,0.29409755 15.6394737,0.378947368 L17.9131579,0.552631579 C19.149806,0.647715734 20.1036501,1.68075984 20.1,2.92105263 C20.1,3.32368421 20.1,3.71052632 20.1,4.12894737 C20.0719867,4.97508009 20.5455432,5.75815073 21.3078947,6.12631579 C22.0107777,6.53571466 22.901932,6.4153763 23.4710526,5.83421053 C23.7394737,5.58157895 24,5.32105263 24.2605263,5.04473684 C24.6843127,4.66937207 25.2425608,4.48254821 25.806917,4.52722021 C26.3712733,4.57189221 26.8931772,4.84421623 27.2526316,5.28157895 C27.8763158,5.95263158 28.5,6.62368421 29.1078947,7.31052632 C29.9420864,8.1458148 29.9420864,9.49892204 29.1078947,10.3342105 C28.8157895,10.6263158 28.5078947,10.8868421 28.2157895,11.1789474 C27.6819802,11.6803431 27.5124567,12.4588955 27.7894737,13.1368421 C27.9871958,13.890675 28.6022452,14.4626709 29.3684211,14.6052632 C29.8263158,14.6921053 30.2921053,14.7 30.75,14.7473684 C31.920117,14.7944107 32.8313213,15.7797828 32.7868421,16.95 C32.8184211,17.8552632 32.8184211,18.7631579 32.7868421,19.6736842 C32.7473684,20.9684211 31.7131579,22.5868421 30.4184211,22.5078947 C30.0078947,22.5078947 27.7973684,22.1131579 27.4973684,22.8631579 C27.1973684,23.6131579 27.5921053,24.1026316 28.1526316,24.75 C28.4447368,25.0815789 28.7605263,25.3973684 29.0526316,25.7289474 C29.8791695,26.5704615 29.8791695,27.9190122 29.0526316,28.7605263 C28.4447368,29.3526316 27.8210526,29.9289474 27.2052632,30.5052632 C26.8421053,30.9552632 25.8631579,32.0131579 24.8289474,32.0289474 Z M8.00525206,16.3973684 C7.99778328,21.3991465 11.7706505,25.5980375 16.7447368,26.1236842 C20.6921053,26.1236842 24.1184787,23.4315789 24.1184787,18.4578947 C24.1354026,13.6088143 20.3968031,9.57361004 15.5605263,9.22105263 C10.7052632,8.82631579 8.01315789,11.4078947 8.00525206,16.3973684 L8.00525206,16.3973684 Z" id="Shape"></path>
                </g>
                <g id="Q83r0t-4" transform="translate(157.105263, 134.210526)" fill="#FFD200" fill-rule="nonzero">
                    <path d="M25.4447368,30.9710526 C24.8745511,30.9369327 24.341005,30.6786737 23.9605263,30.2526316 C23.6684211,29.9368421 23.3921053,29.6131579 23.0921053,29.3052632 C22.5817464,28.6719002 21.7263322,28.431117 20.9605263,28.7052632 C20.2061621,28.9562133 19.7119855,29.6797136 19.7526316,30.4736842 C19.7526316,30.9157895 19.7526316,31.3657895 19.7526316,31.8078947 C19.7629507,32.351639 19.5381524,32.8733934 19.1358787,33.2393717 C18.733605,33.6053501 18.1929811,33.7799572 17.6526316,33.7184211 L15.2131579,33.5289474 C14.0120518,33.4223186 13.0926447,32.4137153 13.0973684,31.2078947 C13.0973684,30.7578947 13.0973684,30.3157895 13.0973684,29.8657895 C13.0867519,29.0495034 12.6074702,28.3121469 11.8657895,27.9710526 C11.2033292,27.5868793 10.3667206,27.6866288 9.81315789,28.2157895 C9.51315789,28.4763158 9.23684211,28.7605263 8.94473684,29.0052632 C8.51346884,29.3829358 7.94655077,29.5678854 7.37553487,29.5171946 C6.80451897,29.4665039 6.27904661,29.1845798 5.92105263,28.7368421 C5.32105263,28.0894737 4.72105263,27.4342105 4.13684211,26.7631579 C3.71861337,26.3585926 3.48247154,25.8016203 3.48247154,25.2197368 C3.48247154,24.6378534 3.71861337,24.0808811 4.13684211,23.6763158 C4.41315789,23.4157895 4.69736842,23.1631579 4.97368421,22.8868421 C5.5433018,22.3523951 5.71131147,21.5155167 5.39210526,20.8026316 C5.14543678,20.0282768 4.46360009,19.4735097 3.65526316,19.3894737 C3.22105263,19.3342105 2.78684211,19.3263158 2.35263158,19.2789474 C1.10697878,19.154681 0.173141701,18.0824976 0.221052632,16.8315789 C0.221052632,16.0421053 0.221052632,15.2526316 0.221052632,14.4631579 C0.18773881,13.9356188 0.377237727,13.4182956 0.74342804,13.0370975 C1.10961835,12.6558994 1.61891718,12.4457855 2.14736842,12.4578947 C2.58947368,12.4578947 3.03947368,12.5052632 3.48947368,12.5368421 C4.29841908,12.6613202 5.08449243,12.2041478 5.37631579,11.4394737 C5.70080244,10.6455358 5.49955286,9.73362359 4.87105263,9.15 C4.60263158,8.85789474 4.32631579,8.56578947 4.08157895,8.25789474 C3.28450008,7.43200409 3.28450008,6.12325906 4.08157895,5.29736842 C4.72105263,4.67368421 5.36842105,4.07368421 6.03947368,3.48947368 C6.92030082,2.78032266 8.20593415,2.90293075 8.93684211,3.76578947 C9.23684211,4.08947368 9.52105263,4.42894737 9.82894737,4.74473684 C10.3306084,5.34491078 11.1548102,5.56596108 11.8894737,5.29736842 C12.6385831,5.07460584 13.1419763,4.37310306 13.1131579,3.59210526 C13.1131579,3.18157895 13.1131579,2.75526316 13.1131579,2.34473684 C13.0766229,1.75784195 13.3058067,1.18560389 13.7373654,0.786182487 C14.1689242,0.386761085 14.7571535,0.202457303 15.3394737,0.284210526 L17.6052632,0.465789474 C18.8419113,0.560873628 19.7957553,1.59391774 19.7921053,2.83421053 C19.7921053,3.24473684 19.7921053,3.62368421 19.7921053,4.05 C19.7554212,4.89418733 20.2282781,5.67813436 20.9921053,6.03947368 C21.6932442,6.45088047 22.5841927,6.33382154 23.1552632,5.75526316 C23.4236842,5.50263158 23.6842105,5.24210526 23.9447368,4.96578947 C24.3681441,4.5929649 24.9246029,4.40770873 25.4869903,4.45234265 C26.0493778,4.49697658 26.5696487,4.76768749 26.9289474,5.20263158 C27.5605263,5.87368421 28.1763158,6.55263158 28.7842105,7.23947368 C29.614079,8.0765466 29.614079,9.42608498 28.7842105,10.2631579 C28.4842105,10.5473684 28.1763158,10.8157895 27.8842105,11.1 C27.3550805,11.6073248 27.1864609,12.3848484 27.4578947,13.0657895 C27.657339,13.8185907 28.2715704,14.3898259 29.0368421,14.5342105 C29.4973909,14.6027541 29.9611622,14.6475502 30.4263158,14.6684211 C31.5957038,14.72389 32.5033521,15.7089348 32.4631579,16.8789474 C32.4631579,17.7842105 32.4631579,18.6921053 32.4631579,19.6026316 C32.4994841,20.1556054 32.2813038,20.6948973 31.8706982,21.0670567 C31.4600925,21.4392162 30.9020157,21.6034982 30.3552632,21.5131579 C29.9526316,21.5131579 29.5657895,21.4342105 29.1394737,21.4263158 C28.3803592,21.3750208 27.6837687,21.8470097 27.45,22.5710526 C27.1520937,23.2885751 27.3104662,24.1145966 27.8526316,24.6710526 C28.1447368,25.0105263 28.4605263,25.3263158 28.7526316,25.6578947 C29.5834239,26.4976645 29.5834239,27.8497039 28.7526316,28.6894737 C28.1447368,29.2815789 27.5210526,29.8578947 26.9052632,30.4342105 C26.5171978,30.8131599 25.9858444,31.0084681 25.4447368,30.9710526 Z M7.67368421,16.2947368 C7.65364479,21.307189 11.4288029,25.5222706 16.4131579,26.0526316 C18.7141685,26.2422382 20.9870214,25.4428319 22.6627117,23.8545427 C24.338402,22.2662536 25.258298,20.0394392 25.1921053,17.7315789 C25.1659079,12.7515216 21.4107132,8.58210104 16.4605263,8.03684211 C14.1663953,7.8334183 11.8945465,8.61912357 10.2162551,10.1963858 C8.53796363,11.773648 7.61290186,13.9924068 7.67368421,16.2947368 Z" id="Shape"></path>
                </g>
                <polygon id="Path" fill="#FFFFFF" opacity="0.600000024" points="269.739474 134.644737 200.218421 128.234211 200.218421 79.0736842 269.739474 85.4842105"></polygon>
                <polygon id="Path" fill="#FFFFFF" opacity="0.600000024" points="164.778947 105.418421 95.2578947 99.0078947 95.2578947 49.8473684 164.778947 56.2657895"></polygon>
                <polygon id="Path" stroke="#FFFFFF" stroke-width="0.848" points="246.371053 101.368421 176.85 94.95 176.85 45.7973684 246.371053 52.2078947"></polygon>
                <path d="M56.8421053,108.426316 C56.1036305,107.04453 54.8310121,106.025865 53.3210526,105.607895 C50.2894737,104.818421 47.5578947,106.728947 46.0105263,109.2 C45.1026316,110.644737 44.5026316,112.357895 43.1921053,113.439474 C42.0059308,114.280324 40.6639669,114.876156 39.2447368,115.192105 C35.9368421,116.218421 32.7,117.821053 30.4342105,120.442105 C29.7319145,121.16619 29.2571022,122.080135 29.0684211,123.071053 C28.8868421,124.507895 29.6921053,125.960526 29.4157895,127.381579 C29.1078947,128.960526 27.5842105,129.994737 26.7157895,131.328947 C25.5005718,133.375847 25.6216677,135.949912 27.0236842,137.873684 C28.4680044,139.743586 30.7347215,140.78999 33.0947368,140.676316 C35.4381517,140.536482 37.6402007,139.508859 39.2526316,137.802632 C42.6631579,134.305263 43.5552632,128.636842 47.6131579,125.913158 C48.7184211,125.171053 50.0763158,124.610526 50.6210526,123.402632 C51.0078947,122.55 50.8815789,121.563158 51.0394737,120.647368 C51.3142793,119.052579 52.395837,117.714077 53.8973684,117.110526 C56.2657895,116.202632 58.7763158,117.007895 59.7078947,113.952632 C60.1280816,112.60778 59.6300465,111.1456 58.4763158,110.336842 C58.1963903,110.193085 57.9318626,110.021142 57.6868421,109.823684 C57.4030376,109.497951 57.1857892,109.119778 57.0473684,108.710526 C56.9368421,108.607895 56.8894737,108.521053 56.8421053,108.426316 Z" id="Path" fill="#FC682D" fill-rule="nonzero"></path>
                <polygon id="Path" fill="#FFFFFF" fill-rule="nonzero" points="76.7605263 124.571053 76.6736842 124.5 76.9421053 124.586842"></polygon>
                <path d="M76.3342105,181.792105 C76.4281889,182.888247 76.7624205,183.950241 77.3131579,184.902632 C77.9661009,185.771577 78.8657345,186.423605 79.8947368,186.773684 C82.1127663,187.600541 84.564077,187.541166 86.7394737,186.607895 C87.0398517,186.507787 87.2964267,186.30699 87.4657895,186.039474 C87.5548224,185.821757 87.5741307,185.581783 87.5210526,185.352632 C87.197553,184.129068 86.4252851,183.072132 85.3578947,182.392105 C84.3004813,181.719281 83.3615172,180.876347 82.5789474,179.897368 C81.2842105,177.923684 81.3710526,172.263158 77.5421053,173.636842 C74.3368421,174.789474 75.9552632,179.478947 76.3342105,181.792105 Z" id="Path" fill="#FFBBAB" fill-rule="nonzero"></path>
                <path d="M54.4815789,156.134211 C57.4934553,155.456784 60.5438599,154.963762 63.6157895,154.657895 C69,154.128947 72.9394737,155.447368 75.5684211,160.373684 C77.9368421,164.857895 80.4078947,169.389474 81.6631579,174.315789 C81.9552632,175.476316 82.1684211,176.778947 81.5605263,177.813158 C80.6684211,179.336842 78.4026316,179.455263 76.8236842,178.539474 C75.2447368,177.623684 74.3921053,176.013158 73.4842105,174.489474 C71.9052632,171.915789 69.2131579,165.568421 66.0710526,165.592105 C61.8789474,165.592105 57.7421053,168.544737 53.6368421,169.310526 C53.2166597,169.44699 52.7585237,169.401176 52.3736842,169.184211 C52.1052632,168.978947 49.35,169.318421 49.2157895,168.986842 C48.2921053,165.828947 50.3921053,161.842105 50.2578947,158.534211 C50.2118296,158.198446 50.2610707,157.856494 50.4,157.547368 C50.705098,157.15042 51.1522269,156.887237 51.6473684,156.813158 C52.6342105,156.576316 53.5578947,156.315789 54.4815789,156.134211 Z" id="Path" fill="#282328" fill-rule="nonzero"></path>
                <path d="M76.2473684,185.636842 C76.2473684,185.636842 75.8605263,187.081579 76.6421053,187.8 C77.4236842,188.518421 85.0578947,192.063158 89.3921053,187.926316 C93.7263158,183.789474 82.4289474,184.721053 82.4289474,184.721053 L76.2473684,185.636842 Z" id="Path" fill="#68E1FD" fill-rule="nonzero"></path>
                <path d="M76.1289474,182.368421 C76.5515718,182.095269 77.1099031,182.168822 77.4473684,182.542105 C78.5214779,183.499719 80.0116885,183.839487 81.3947368,183.442105 C82.9026316,182.881579 83.3052632,181.010526 84.0789474,180.907895 C84.8526316,180.805263 89.4,183.805263 89.8184211,185.281579 C90.2368421,186.757895 88.2394737,188.131579 85.9578947,188.565789 C83.6763158,189 78.1736842,188.028947 77.0210526,186.931579 C75.9949163,185.648141 75.6617177,183.943815 76.1289474,182.368421 L76.1289474,182.368421 Z" id="Path" fill="#FFFFFF" fill-rule="nonzero"></path>
                <path d="M65.9447368,193.594737 C65.6207621,194.644003 65.5291664,195.751234 65.6763158,196.839474 C65.948836,197.891932 66.5353763,198.836454 67.3578947,199.547368 C69.0954043,201.154302 71.3863136,202.028241 73.7526316,201.986842 C74.0670976,202.013046 74.3806037,201.926272 74.6368421,201.742105 C74.8010719,201.572864 74.9110313,201.358444 74.9526316,201.126316 C75.1128408,199.8707 74.7974231,198.600581 74.0684211,197.565789 C73.3602349,196.539484 72.826716,195.403089 72.4894737,194.202632 C72.0394737,191.889474 74.2657895,186.678947 70.2,186.505263 C66.7578947,186.315789 66.4815789,191.305263 65.9447368,193.594737 Z" id="Path" fill="#FFBBAB" fill-rule="nonzero"></path>
                <path d="M55.4605263,161.565789 C58.502817,162.079784 61.5110086,162.778444 64.4684211,163.657895 C69.6552632,165.236842 72.7894737,167.952632 73.3657895,173.486842 C73.8947368,178.539474 74.4236842,183.663158 73.7131579,188.692105 C73.5473684,189.876316 73.2473684,191.163158 72.3,191.889474 C70.8947368,192.963158 68.7236842,192.197368 67.6657895,190.776316 C66.6078947,189.355263 66.3710526,187.515789 66.0868421,185.763158 C65.6447368,182.794737 65.5184211,175.886842 62.6052632,174.710526 C57.6552632,172.721053 51.9473684,175.223684 47.2026316,172.594737 C45.4953585,171.719916 43.9040849,170.635198 42.4657895,169.365789 C41.0304577,168.083379 40.0175114,166.396053 39.5605263,164.526316 C39.374983,163.540101 39.3350847,162.532005 39.4421053,161.534211 C39.4900631,160.707114 39.6223276,159.887074 39.8368421,159.086842 C40.1210526,158.163158 40.2710526,158.297368 41.2184211,158.431579 C42.7973684,158.660526 44.3763158,159 45.9552632,159.371053 C49.1763158,160.121053 52.2789474,161.052632 55.4605263,161.565789 Z" id="Path" fill="#473F47" fill-rule="nonzero"></path>
                <path d="M64.4131579,197.115789 C64.4131579,197.115789 63.5052632,198.307895 63.9552632,199.271053 C64.4052632,200.234211 70.1210526,206.376316 75.7026316,204.221053 C81.2842105,202.065789 70.4842105,198.607895 70.4842105,198.607895 L64.4131579,197.115789 Z" id="Path" fill="#68E1FD" fill-rule="nonzero"></path>
                <path d="M65.5342105,194.068421 C66.0296345,193.973515 66.5198858,194.255577 66.6868421,194.731579 C67.3188918,196.029192 68.5750974,196.909431 70.0105263,197.060526 C71.5894737,197.115789 72.7026316,195.536842 73.4526316,195.734211 C74.2026316,195.931579 77.2815789,200.471053 77.1078947,201.963158 C76.9342105,203.455263 74.5894737,204.007895 72.2921053,203.542105 C69.9947368,203.076316 65.2894737,200.092105 64.6421053,198.639474 C64.1707131,197.061746 64.5041746,195.353124 65.5342105,194.068421 L65.5342105,194.068421 Z" id="Path" fill="#FFFFFF" fill-rule="nonzero"></path>
                <path d="M70.7368421,143.960526 C70.5157895,145.192105 69.9868421,146.234211 68.8578947,146.463158 C68.7633359,146.471372 68.668243,146.471372 68.5736842,146.463158 C66.5368421,146.621053 64.1052632,144.797368 62.4473684,143.257895 C61.7582523,142.617762 61.1046456,141.940435 60.4894737,141.228947 L62.0684211,127.918421 L70.5552632,138.971053 C70.8873009,140.613201 70.9486361,142.298587 70.7368421,143.960526 L70.7368421,143.960526 Z" id="Path" fill="#FFFFFF" fill-rule="nonzero"></path>
                <path d="M79.2315789,141.489474 C77.7438668,143.133607 75.9838913,144.509005 74.0289474,145.555263 C72.6231301,146.283158 71.0562858,146.64432 69.4736842,146.605263 C69.2662888,146.597786 69.0624019,146.549497 68.8736842,146.463158 C68.5447589,146.323067 68.2684668,146.082693 68.0842105,145.776316 C67.5215992,144.921111 67.2451517,143.909313 67.2947368,142.886842 C67.5,140.218421 70.5631579,139.026316 70.5631579,139.026316 C70.5631579,139.026316 77.3526316,137.723684 78.0947368,138.157895 C78.4973684,138.394737 78.7894737,139.357895 78.9789474,140.194737 C79.1368421,140.889474 79.2315789,141.489474 79.2315789,141.489474 Z" id="Path" fill="#FFFFFF" fill-rule="nonzero"></path>
                <path d="M79.2315789,141.489474 C77.7438668,143.133607 75.9838913,144.509005 74.0289474,145.555263 C72.6231301,146.283158 71.0562858,146.64432 69.4736842,146.605263 C69.2662888,146.597786 69.0624019,146.549497 68.8736842,146.463158 C68.7791254,146.471372 68.6840325,146.471372 68.5894737,146.463158 C66.5526316,146.621053 64.1210526,144.797368 62.4631579,143.257895 L62.4631579,143.257895 L63.5605263,139.310526 C64.602412,140.686699 65.8640693,141.881673 67.2947368,142.847368 C68.3017684,143.550017 69.5010172,143.924955 70.7289474,143.921053 C71.0613756,143.905507 71.3904082,143.84713 71.7078947,143.747368 C74.2749874,142.86531 76.718548,141.658122 78.9789474,140.155263 C79.1368421,140.889474 79.2315789,141.489474 79.2315789,141.489474 Z" id="Path" fill="#020202" fill-rule="nonzero" opacity="0.1"></path>
                <path d="M77.7473684,134.636842 C77.2383775,135.005919 76.8574629,135.524846 76.6578947,136.121053 C76.6066565,136.429465 76.6066565,136.744219 76.6578947,137.052632 C76.6799653,137.33783 76.7383313,137.619048 76.8315789,137.889474 C76.9854115,138.208266 77.187824,138.501231 77.4315789,138.757895 L77.9842105,139.397368 C78.0478495,139.48378 78.1284381,139.55631 78.2210526,139.610526 C78.4328047,139.68707 78.6697198,139.616636 78.8052632,139.436842 C78.9358615,139.264722 79.025013,139.064807 79.0657895,138.852632 C79.3894737,137.747368 80.2894737,135.978947 80.1,134.818421 C79.8868421,133.421053 78.4421053,134.013158 77.7473684,134.636842 Z" id="Path" fill="#FFBBAB" fill-rule="nonzero"></path>
                <path d="M62.5263158,143.265789 C62.4473684,143.881579 62.4552632,144.528947 62.3763158,145.152632 C61.9815789,148.594737 60.7421053,152.036842 61.3657895,155.534211 C61.6216431,156.302955 61.6216431,157.133887 61.3657895,157.902632 C61.0020417,158.48221 60.441404,158.911097 59.7868421,159.110526 C56.5578947,160.405263 52.9973684,160.492105 49.5236842,160.563158 C46.9105263,160.618421 43.2078947,160.942105 40.9578947,159.268421 C40.0184211,158.557895 39.8052632,157.421053 39.6157895,156.284211 C39.125338,152.621032 39.022137,148.91638 39.3078947,145.231579 C39.3078947,144.75 39.3552632,144.268421 39.3868421,143.786842 C39.5868421,140.471053 39.9131579,137.171053 40.3657895,133.886842 C40.7052632,131.518421 41.2026316,128.936842 42.9789474,127.318421 C45.3473684,125.171053 49.5473684,124.057895 52.6657895,123.860526 C53.6779256,123.779774 54.6964232,123.846256 55.6894737,124.057895 C57.0862791,124.45562 58.4051381,125.088352 59.5894737,125.928947 C61.0184211,126.852632 62.2894737,127.65 62.85,129.236842 C63.4580841,131.063237 63.8062318,132.96609 63.8842105,134.889474 C63.9520726,136.692931 63.7687368,138.497061 63.3394737,140.25 C63.15,141.110526 62.8184211,141.955263 62.6289474,142.807895 C62.5736842,142.95 62.55,143.107895 62.5263158,143.265789 Z" id="Path" fill="#FFFFFF" fill-rule="nonzero"></path>
                <path d="M46.1605263,161.052632 C45.1263158,161.226316 42.9394737,160.034211 42.2131579,159.813158 C41.7710526,159.671053 41.4236842,159.394737 40.9421053,159.228947 C38.7315789,158.392105 39.2289474,151.957895 39.2131579,150.213158 C39.1657895,145.594737 38.8263158,140.739474 39.3157895,136.2 C39.4273426,134.426167 39.8439746,132.684859 40.5473684,131.052632 C41.2679626,129.405447 42.68667,128.166249 44.4157895,127.673684 C44.7474896,127.570944 45.1025104,127.570944 45.4342105,127.673684 C46.7842105,128.194737 46.8,130.515789 46.9026316,131.621053 C47.0605263,133.365789 47.4552632,135.205263 48.8052632,136.428947 C52.0973684,139.421053 58.3894737,138.252632 62.3526316,138.078947 C62.7113294,138.028715 63.0768609,138.086431 63.4026316,138.244737 C63.8740137,138.623194 64.0298499,139.272511 63.7815789,139.823684 C63.5341241,140.346923 63.2268069,140.83969 62.8657895,141.292105 C61.7131579,143.052632 61.6973684,145.310526 60.9236842,147.268421 C59.8799762,149.596445 58.0874965,151.508423 55.8315789,152.7 C53.586763,153.867511 51.2563495,154.86249 48.8605263,155.676316 C48.3219335,155.847114 47.8189789,156.114643 47.3763158,156.465789 C46.8384836,156.990917 46.5149208,157.697128 46.4684211,158.447368 C46.4052632,158.928947 46.8394737,160.452632 46.6184211,160.768421 C46.5175494,160.928464 46.3487116,161.03326 46.1605263,161.052632 L46.1605263,161.052632 Z" id="Path" fill="#020202" fill-rule="nonzero" opacity="0.1"></path>
                <polygon id="Rectangle" fill="#CCCCCC" fill-rule="nonzero" transform="translate(66.890268, 146.292847) rotate(-148.750000) translate(-66.890268, -146.292847) " points="60.0021102 112.333636 73.778426 112.333636 73.778426 180.252057 60.0021102 180.252057"></polygon>
                <path d="M66.6311141,121.538293 L67.3845878,121.538293 C68.802855,121.538293 69.9525878,122.688025 69.9525878,124.106293 L69.9525878,168.107135 C69.9525878,169.525402 68.802855,170.675135 67.3845878,170.675135 L66.6311141,170.675135 C65.2128469,170.675135 64.0631141,169.525402 64.0631141,168.107135 L64.0631141,124.106293 C64.0631141,122.688025 65.2128469,121.538293 66.6311141,121.538293 Z" id="Rectangle" fill="url(#linearGradient-4)" fill-rule="nonzero" transform="translate(67.007851, 146.106714) rotate(-148.750000) translate(-67.007851, -146.106714) "></path>
                <path d="M57.9947368,121.578947 C57.5814183,121.931869 57.0539772,122.122646 56.5105263,122.115789 C56.0548543,122.110604 55.6005021,122.065697 55.1526316,121.981579 L54.9,121.934211 C54.841102,121.914356 54.7773191,121.914356 54.7184211,121.934211 C54.6554902,121.978025 54.6150575,122.047338 54.6078947,122.123684 C54.4015342,123.010375 54.2773248,123.914197 54.2368421,124.823684 L54.2368421,124.823684 C54.2368421,124.989474 54.2368421,125.155263 54.2368421,125.321053 C54.2484292,125.49653 54.2101101,125.671703 54.1263158,125.826316 C53.9780726,125.997371 53.7678956,126.10246 53.5421053,126.118421 C53.1318623,126.202118 52.7113357,126.223411 52.2947368,126.181579 C51.4216994,125.986925 50.608958,125.583263 49.9263158,125.005263 C50.1707536,123.470573 50.2738175,121.916687 50.2342105,120.363158 C50.1789474,118.357895 49.9026316,116.321053 50.3526316,114.363158 C50.466474,113.413874 50.9902597,112.562035 51.7860045,112.032044 C52.5817492,111.502054 53.5696558,111.34706 54.4894737,111.607895 C55.9133933,111.751741 57.2665356,112.299572 58.3894737,113.186842 C58.7225733,113.518711 58.8904326,113.981771 58.8473684,114.45 C58.9026316,115.239474 58.9342105,116.028947 58.9263158,116.818421 C58.9184211,117.607895 58.8631579,118.634211 58.7684211,119.542105 C58.7666811,120.292525 58.4916398,121.016613 57.9947368,121.578947 L57.9947368,121.578947 Z" id="Path" fill="#FFBBAB" fill-rule="nonzero"></path>
                <path d="M55.1526316,121.997368 L54.9,121.95 C54.841102,121.930145 54.7773191,121.930145 54.7184211,121.95 C54.6554902,121.993815 54.6150575,122.063128 54.6078947,122.139474 C54.4015342,123.026165 54.2773248,123.929986 54.2368421,124.839474 L54.2368421,124.839474 C52.6609707,124.1194 51.8071159,122.39191 52.1921053,120.702632 C53.1263383,121.228524 54.1133615,121.654558 55.1368421,121.973684 L55.1526316,121.997368 Z" id="Path" fill="#E0A194" fill-rule="nonzero"></path>
                <path d="M67.1763158,131.186842 L67.4763158,130.831579 C67.6026316,130.681579 67.8,130.507895 67.9736842,130.602632 C68.1473684,130.697368 68.1394737,130.957895 68.2894737,131.068421 C68.3702394,131.118353 68.4629568,131.145622 68.5578947,131.147368 C69.3989213,131.205496 70.2334962,131.334908 71.0526316,131.534211 C71.5579941,131.629458 71.9686326,131.997512 72.1184211,132.489474 C72.1577845,132.835169 72.1003896,133.185005 71.9526316,133.5 C71.716298,134.328678 71.273531,135.083827 70.6657895,135.694737 C70.1275665,136.089471 69.5194973,136.378773 68.8736842,136.547368 C68.3169877,136.69147 67.784841,136.917632 67.2947368,137.218421 C66.6552632,137.534211 66.1421053,138.078947 65.5105263,138.426316 C64.7898175,138.899543 63.8297128,138.763429 63.2689394,138.108525 C62.708166,137.453622 62.7214697,136.484008 63.3,135.844737 L64.35,134.597368 L67.1763158,131.186842 Z" id="Path" fill="#FFBBAB" fill-rule="nonzero"></path>
                <path d="M46.3106941,127.412612 C49.0423235,127.412612 51.2567467,129.627035 51.2567467,132.358665 L51.2567467,145.756033 C51.2567467,148.487662 49.0423235,150.702086 46.3106941,150.702086 C43.5790646,150.702086 41.3646415,148.487662 41.3646415,145.756033 L41.3646415,132.358665 C41.3646415,129.627035 43.5790646,127.412612 46.3106941,127.412612 Z" id="Rectangle" fill="#FFFFFF" fill-rule="nonzero" transform="translate(46.310694, 139.057349) rotate(-12.700000) translate(-46.310694, -139.057349) "></path>
                <path d="M51.5368421,138.828947 L63.0710526,134.210526 L66.6710526,139.436842 C66.6710526,139.436842 51.3947368,151.547368 47.4394737,150.489474 C43.4842105,149.431579 45.6947368,145.405263 45.6947368,145.405263 C45.6947368,145.405263 44.7236842,140.692105 51.5368421,138.828947 Z" id="Path" fill="#FFFFFF" fill-rule="nonzero"></path>
                <path d="M55.2552632,114.655263 C54.4184211,114.915789 53.4947368,114.884211 52.6815789,115.207895 C51.8684211,115.531579 51.1578947,116.455263 51.5289474,117.252632 C51.2289474,116.968421 50.6605263,117.252632 50.5815789,117.639474 C50.5487696,118.064467 50.7723392,118.468134 51.15,118.665789 L50.1157895,120.244737 C50.0387137,120.397656 49.9177656,120.524102 49.7684211,120.607895 C49.6154016,120.663385 49.4477563,120.663385 49.2947368,120.607895 C48.5790748,120.395461 47.998371,119.869924 47.7157895,119.178947 C47.4387323,118.490275 47.2863599,117.757818 47.2657895,117.015789 C47.1710674,115.617392 47.1710674,114.214187 47.2657895,112.815789 C47.2698135,112.139456 47.4010432,111.469916 47.6526316,110.842105 C48.0597148,110.114941 48.6647081,109.51816 49.3973684,109.121053 C50.9596349,108.139996 52.8385948,107.795285 54.6473684,108.157895 C55.9815789,108.473684 58.1052632,109.697368 58.3184211,111.236842 C58.5315789,112.776316 56.4552632,114.284211 55.2552632,114.655263 Z" id="Path" fill="#FC682D" fill-rule="nonzero"></path>
                <path d="M95.9763158,120.284211 C91.3710566,123.443707 85.2279919,123.16177 80.9314946,119.593725 C76.6349973,116.025681 75.2295349,110.038911 77.4894129,104.931683 C79.7492909,99.8244546 85.1251388,96.8383213 90.6552632,97.6184211 L87.6947368,102.521053 L84.3631579,108.047368 L93.1342105,113.360526 L96.4973684,107.794737 L99.3315789,103.113158 C103.078661,108.794951 101.586586,116.430866 95.9763158,120.284211 L95.9763158,120.284211 Z" id="Path" fill="#CCCCCC" fill-rule="nonzero"></path>
                <path d="M51.4815789,190.910526 C48.8253369,192.343791 45.7367525,192.756538 42.7973684,192.071053 L50.5342105,181.981579 L42.3868421,175.736842 L34.6263158,185.865789 L34.5789474,185.786842 C32.1965885,181.332286 32.7322226,175.881249 35.9360775,171.97561 C39.1399324,168.069971 44.3810419,166.478907 49.2154169,167.944348 C54.0497919,169.409789 57.5253523,173.643132 58.0214046,178.670322 C58.5174569,183.697511 55.9363088,188.528493 51.4815789,190.910526 L51.4815789,190.910526 Z" id="Path" fill="#CCCCCC" fill-rule="nonzero"></path>
            </g>
        </g>
    </g>
</svg>