<svg width="287" height="256" viewBox="0 0 287 256" fill="none" xmlns="http://www.w3.org/2000/svg">
<mask id="mask0" mask-type="alpha" maskUnits="userSpaceOnUse" x="0" y="0" width="287" height="256">
<rect width="287" height="256" rx="8" fill="#212121"/>
</mask>
<g mask="url(#mask0)">
<rect width="287" height="270" rx="8" fill="#212121"/>
<path opacity="0.05" d="M-297 123.493L-278.444 138.343C-259.889 153.194 -222.778 182.896 -185.667 163.125C-148.556 142.984 -111.444 74.2995 -74.3333 59.1703C-37.2222 44.598 -0.111115 83.5812 37 108.642C74.1111 133.702 111.222 142.984 148.333 143.263C185.444 142.984 222.556 133.702 259.667 148.275C296.778 163.404 333.889 202.387 371 182.896C408.111 163.404 445.222 83.5812 482.333 64.0896C519.444 44.598 556.556 83.5812 593.667 123.493C630.778 163.404 667.889 202.387 705 202.666C742.111 202.387 779.222 163.404 816.333 143.263C853.444 123.493 890.556 123.493 927.667 143.263C964.778 163.404 1001.89 202.387 1020.44 222.528L1039 242.299V272H1020.44C1001.89 272 964.778 272 927.667 272C890.556 272 853.444 272 816.333 272C779.222 272 742.111 272 705 272C667.889 272 630.778 272 593.667 272C556.556 272 519.444 272 482.333 272C445.222 272 408.111 272 371 272C333.889 272 296.778 272 259.667 272C222.556 272 185.444 272 148.333 272C111.222 272 74.1111 272 37 272C-0.111115 272 -37.2222 272 -74.3333 272C-111.444 272 -148.556 272 -185.667 272C-222.778 272 -259.889 272 -278.444 272H-297V123.493Z" fill="white"/>
<path opacity="0.05" d="M1154 112.804L1134.01 128.824C1114.03 144.844 1074.06 176.883 1034.08 155.557C994.111 133.83 954.139 59.7397 914.167 43.4198C874.194 27.7006 834.222 69.7519 794.25 96.7849C754.278 123.818 714.306 133.83 674.333 134.131C634.361 133.83 594.389 123.818 554.417 139.537C514.444 155.857 474.472 197.908 434.5 176.883C394.528 155.857 354.556 69.7519 314.583 48.7263C274.611 27.7006 234.639 69.7519 194.667 112.804C154.694 155.857 114.722 197.908 74.75 198.209C34.7778 197.908 -5.19446 155.857 -45.1666 134.131C-85.1389 112.804 -125.111 112.804 -165.083 134.131C-205.056 155.857 -245.028 197.908 -265.014 219.635L-285 240.961V273H-265.014C-245.028 273 -205.056 273 -165.083 273C-125.111 273 -85.1389 273 -45.1666 273C-5.19446 273 34.7778 273 74.75 273C114.722 273 154.694 273 194.667 273C234.639 273 274.611 273 314.583 273C354.556 273 394.528 273 434.5 273C474.472 273 514.444 273 554.417 273C594.389 273 634.361 273 674.333 273C714.306 273 754.278 273 794.25 273C834.222 273 874.194 273 914.167 273C954.139 273 994.111 273 1034.08 273C1074.06 273 1114.03 273 1134.01 273H1154V112.804Z" fill="white"/>
</g>
</svg>
